<svg width="70" height="70" viewBox="0 0 70 70" fill="none" xmlns="http://www.w3.org/2000/svg">
<path d="M58.8984 25.4024C58.7311 25.0042 58.4496 24.6645 58.0896 24.4261C57.7295 24.1877 57.3069 24.0612 56.875 24.0625H13.125C12.6931 24.0612 12.2705 24.1877 11.9104 24.4261C11.5504 24.6645 11.2689 25.0042 11.1016 25.4024C10.944 25.8064 10.904 26.2468 10.9862 26.6727C11.0685 27.0985 11.2697 27.4923 11.5664 27.8086L33.4414 49.6836C33.8595 50.0879 34.4184 50.3139 35 50.3139C35.5816 50.3139 36.1405 50.0879 36.5586 49.6836L58.4336 27.8086C58.7304 27.4923 58.9315 27.0985 59.0138 26.6727C59.096 26.2468 59.056 25.8064 58.8984 25.4024Z" fill="#4F98CA"/>
</svg>
