<svg width="1368" height="277" viewBox="0 0 1368 277" fill="none" xmlns="http://www.w3.org/2000/svg">
<path d="M1283.25 28.125H1170.75C1169.51 28.125 1168.31 28.6189 1167.44 29.4979C1166.56 30.377 1166.06 31.5693 1166.06 32.8125V112.5C1166.06 114.986 1167.05 117.371 1168.81 119.129C1170.57 120.887 1172.95 121.875 1175.44 121.875H1278.56C1281.05 121.875 1283.43 120.887 1285.19 119.129C1286.95 117.371 1287.94 114.986 1287.94 112.5V32.8125C1287.94 31.5693 1287.44 30.377 1286.56 29.4979C1285.69 28.6189 1284.49 28.125 1283.25 28.125ZM1209.83 75L1175.44 106.523V43.4766L1209.83 75ZM1216.75 81.3867L1223.84 87.832C1224.7 88.6226 1225.83 89.061 1227 89.061C1228.17 89.061 1229.3 88.6226 1230.16 87.832L1237.25 81.3867L1271.18 112.5H1182.82L1216.75 81.3867ZM1244.17 75L1278.56 43.4766V106.523L1244.17 75Z" fill="#50D890"/>
<path d="M749.078 92.8125L721.598 81.0937C720.18 80.4582 718.623 80.1947 717.075 80.3279C715.527 80.4612 714.038 80.987 712.75 81.8555L698.043 91.6406C689.08 87.2872 681.822 80.0712 677.418 71.1328L687.145 56.25C688.007 54.9602 688.534 53.4754 688.677 51.9303C688.821 50.3852 688.576 48.8288 687.965 47.4023L676.188 19.9219C675.366 18.0663 673.974 16.5207 672.215 15.5093C670.455 14.4979 668.419 14.0732 666.402 14.2969C658.49 15.3334 651.223 19.208 645.953 25.2003C640.682 31.1926 637.768 38.8949 637.75 46.875C637.75 93.3984 675.602 131.25 722.125 131.25C730.105 131.232 737.807 128.318 743.8 123.047C749.792 117.777 753.667 110.51 754.703 102.598C754.927 100.581 754.502 98.5447 753.491 96.7853C752.479 95.0258 750.934 93.6343 749.078 92.8125Z" fill="#50D890"/>
<path d="M711.227 27.9492C718.362 29.8985 724.865 33.6746 730.095 38.9047C735.325 44.1349 739.101 50.6384 741.051 57.7734C741.309 58.7752 741.892 59.6632 742.708 60.2991C743.524 60.9351 744.528 61.2831 745.562 61.2891C745.979 61.2883 746.393 61.2291 746.793 61.1133C747.389 60.9574 747.948 60.6841 748.437 60.3095C748.925 59.9349 749.335 59.4665 749.64 58.9317C749.946 58.3969 750.142 57.8065 750.216 57.1951C750.291 56.5837 750.242 55.9636 750.074 55.3711C747.731 46.6329 743.129 38.6652 736.732 32.268C730.335 25.8708 722.367 21.2694 713.629 18.9258C713.017 18.703 712.366 18.61 711.717 18.6527C711.068 18.6954 710.434 18.8728 709.857 19.1737C709.28 19.4745 708.772 19.8922 708.365 20.4002C707.959 20.9082 707.662 21.4953 707.495 22.1241C707.327 22.753 707.293 23.4098 707.393 24.0528C707.493 24.6958 707.726 25.3108 708.077 25.8588C708.428 26.4067 708.89 26.8756 709.432 27.2355C709.974 27.5954 710.585 27.8385 711.227 27.9492Z" fill="#50D890"/>
<path d="M706.363 46.0547C710.329 47.1403 713.944 49.2404 716.852 52.1481C719.76 55.0557 721.86 58.6706 722.945 62.6367C723.195 63.6435 723.775 64.5373 724.593 65.1748C725.411 65.8123 726.42 66.1565 727.457 66.1523C727.855 66.1562 728.25 66.0969 728.629 65.9766C729.23 65.8271 729.795 65.5584 730.291 65.1866C730.786 64.8147 731.202 64.3472 731.513 63.8118C731.825 63.2763 732.025 62.6838 732.104 62.0693C732.182 61.4548 732.136 60.8308 731.969 60.2344C730.489 54.6651 727.564 49.5858 723.489 45.5111C719.414 41.4364 714.335 38.511 708.766 37.0312C708.154 36.8085 707.503 36.7155 706.854 36.7582C706.204 36.8008 705.571 36.9783 704.994 37.2791C704.417 37.58 703.909 37.9977 703.502 38.5057C703.095 39.0137 702.799 39.6008 702.631 40.2296C702.464 40.8585 702.429 41.5153 702.53 42.1583C702.63 42.8013 702.863 43.4163 703.214 43.9642C703.565 44.5122 704.026 44.9811 704.569 45.341C705.111 45.7009 705.722 45.9439 706.363 46.0547Z" fill="#50D890"/>
<path d="M171 9.375C157.33 9.39051 144.223 14.8279 134.557 24.4944C124.89 34.1609 119.453 47.267 119.437 60.9375C119.437 105.059 166.312 138.398 168.305 139.805C169.103 140.336 170.041 140.62 171 140.62C171.959 140.62 172.897 140.336 173.695 139.805C175.688 138.398 222.562 105.059 222.562 60.9375C222.547 47.267 217.11 34.1609 207.443 24.4944C197.777 14.8279 184.67 9.39051 171 9.375ZM171 42.1875C174.708 42.1875 178.334 43.2872 181.417 45.3474C184.5 47.4077 186.904 50.3361 188.323 53.7622C189.742 57.1883 190.113 60.9583 189.39 64.5954C188.666 68.2326 186.88 71.5735 184.258 74.1958C181.636 76.818 178.295 78.6038 174.658 79.3272C171.021 80.0507 167.251 79.6794 163.825 78.2602C160.399 76.8411 157.47 74.4379 155.41 71.3544C153.35 68.271 152.25 64.6459 152.25 60.9375C152.25 55.9647 154.225 51.1956 157.742 47.6792C161.258 44.1629 166.027 42.1875 171 42.1875Z" fill="#50D890"/>
<path d="M120.914 164.98V187.876H133.334V190.936H117.35V164.98H120.914Z" fill="#818181"/>
<path d="M144.635 170.884C147.347 170.884 149.483 171.664 151.043 173.224C152.627 174.784 153.419 176.992 153.419 179.848V182.26C153.419 185.116 152.627 187.324 151.043 188.884C149.483 190.444 147.347 191.224 144.635 191.224C141.923 191.224 139.775 190.444 138.191 188.884C136.631 187.324 135.851 185.116 135.851 182.26V179.848C135.851 176.968 136.631 174.76 138.191 173.224C139.775 171.664 141.923 170.884 144.635 170.884ZM144.635 188.164C146.195 188.164 147.455 187.66 148.415 186.652C149.399 185.62 149.891 184.06 149.891 181.972V180.136C149.891 178.048 149.399 176.5 148.415 175.492C147.455 174.46 146.195 173.944 144.635 173.944C143.075 173.944 141.803 174.46 140.819 175.492C139.859 176.5 139.379 178.048 139.379 180.136V181.972C139.379 184.06 139.859 185.62 140.819 186.652C141.803 187.66 143.075 188.164 144.635 188.164Z" fill="#818181"/>
<path d="M165.511 170.884C167.143 170.884 168.475 171.088 169.507 171.496C170.563 171.904 171.499 172.42 172.315 173.044L170.659 175.672C169.747 175 168.895 174.556 168.103 174.34C167.335 174.1 166.471 173.98 165.511 173.98C164.863 173.98 164.239 174.088 163.639 174.304C163.039 174.52 162.511 174.868 162.055 175.348C161.599 175.804 161.227 176.392 160.939 177.112C160.675 177.832 160.543 178.696 160.543 179.704V182.188C160.543 183.244 160.675 184.156 160.939 184.924C161.227 185.668 161.599 186.28 162.055 186.76C162.535 187.216 163.075 187.552 163.675 187.768C164.299 187.984 164.935 188.092 165.583 188.092C166.879 188.092 167.947 187.924 168.787 187.588C169.651 187.252 170.431 186.82 171.127 186.292L172.819 188.956C172.123 189.532 171.187 190.048 170.011 190.504C168.835 190.984 167.347 191.224 165.547 191.224C162.811 191.224 160.699 190.432 159.211 188.848C157.747 187.264 157.015 185.056 157.015 182.224V179.74C157.015 178.324 157.219 177.076 157.627 175.996C158.035 174.892 158.599 173.968 159.319 173.224C160.063 172.456 160.951 171.88 161.983 171.496C163.039 171.088 164.215 170.884 165.511 170.884Z" fill="#818181"/>
<path d="M181.811 191.224C179.819 191.224 178.235 190.732 177.059 189.748C175.907 188.764 175.331 187.408 175.331 185.68V184.708C175.331 183.028 175.895 181.66 177.023 180.604C178.151 179.548 179.975 179.02 182.495 179.02H187.499V177.868C187.499 176.548 187.175 175.576 186.527 174.952C185.903 174.304 184.871 173.98 183.431 173.98C182.279 173.98 181.271 174.16 180.407 174.52C179.567 174.88 178.691 175.36 177.779 175.96L176.051 173.368C177.011 172.696 178.091 172.12 179.291 171.64C180.491 171.136 181.883 170.884 183.467 170.884C184.571 170.884 185.579 171.028 186.491 171.316C187.403 171.58 188.183 171.988 188.831 172.54C189.503 173.068 190.019 173.728 190.379 174.52C190.763 175.288 190.955 176.164 190.955 177.148V190.936H187.607V188.56H187.571C187.379 188.92 187.115 189.256 186.779 189.568C186.467 189.856 186.119 190.108 185.735 190.324C185.207 190.612 184.631 190.828 184.007 190.972C183.407 191.14 182.675 191.224 181.811 191.224ZM187.499 181.972H182.567C181.199 181.972 180.215 182.236 179.615 182.764C179.039 183.292 178.751 184.024 178.751 184.96V185.464C178.751 186.424 179.087 187.12 179.759 187.552C180.431 187.984 181.235 188.2 182.171 188.2C183.035 188.2 183.779 188.104 184.403 187.912C185.051 187.696 185.639 187.384 186.167 186.976C186.647 186.616 186.983 186.208 187.175 185.752C187.391 185.272 187.499 184.66 187.499 183.916V181.972Z" fill="#818181"/>
<path d="M197.427 174.232H194.187V171.244H197.427V166.276H200.919V171.244H206.103V174.232H200.919V185.428C200.919 186.028 200.979 186.52 201.099 186.904C201.219 187.264 201.387 187.54 201.603 187.732C201.843 187.924 202.119 188.056 202.431 188.128C202.743 188.2 203.079 188.236 203.439 188.236C204.303 188.236 205.167 188.08 206.031 187.768L206.571 190.576C206.163 190.744 205.623 190.888 204.951 191.008C204.279 191.152 203.595 191.224 202.899 191.224C201.027 191.224 199.647 190.756 198.759 189.82C197.871 188.884 197.427 187.42 197.427 185.428V174.232Z" fill="#818181"/>
<path d="M217.647 173.872C216.927 173.872 216.255 174.004 215.631 174.268C215.031 174.508 214.503 174.856 214.047 175.312C213.615 175.744 213.267 176.284 213.003 176.932C212.763 177.556 212.643 178.24 212.643 178.984V179.488H222.507V178.84C222.507 177.328 222.075 176.128 221.211 175.24C220.347 174.328 219.159 173.872 217.647 173.872ZM225.423 189.064C224.559 189.664 223.527 190.168 222.327 190.576C221.127 191.008 219.627 191.224 217.827 191.224C216.603 191.224 215.463 191.044 214.407 190.684C213.375 190.348 212.463 189.82 211.671 189.1C210.903 188.356 210.291 187.408 209.835 186.256C209.403 185.104 209.187 183.736 209.187 182.152V179.92C209.187 178.432 209.391 177.124 209.799 175.996C210.231 174.868 210.819 173.932 211.563 173.188C212.331 172.42 213.231 171.844 214.263 171.46C215.295 171.076 216.423 170.884 217.647 170.884C220.167 170.884 222.171 171.652 223.659 173.188C225.147 174.724 225.891 176.896 225.891 179.704V182.332H212.643V182.476C212.643 184.348 213.135 185.776 214.119 186.76C215.103 187.72 216.387 188.2 217.971 188.2C219.267 188.2 220.371 188.044 221.283 187.732C222.219 187.42 223.107 186.988 223.947 186.436L225.423 189.064Z" fill="#818181"/>
<path d="M11.4743 265.72C12.3703 265.72 13.2183 265.816 14.0183 266.008C14.8343 266.2 15.5463 266.472 16.1543 266.824C16.7623 267.176 17.2423 267.608 17.5943 268.12C17.9463 268.616 18.1223 269.176 18.1223 269.8V270.736C18.1223 271.36 17.9463 271.928 17.5943 272.44C17.2423 272.952 16.7623 273.384 16.1543 273.736C15.5463 274.088 14.8343 274.36 14.0183 274.552C13.2183 274.744 12.3703 274.84 11.4743 274.84C10.5783 274.84 9.7223 274.744 8.9063 274.552C8.1063 274.36 7.4023 274.088 6.7943 273.736C6.1863 273.384 5.7063 272.952 5.3543 272.44C5.0023 271.928 4.8263 271.36 4.8263 270.736V269.8C4.8263 269.16 5.0023 268.584 5.3543 268.072C5.7063 267.56 6.1863 267.136 6.7943 266.8C7.4023 266.448 8.1063 266.184 8.9063 266.008C9.7223 265.816 10.5783 265.72 11.4743 265.72ZM11.4743 273.4C12.1143 273.4 12.7303 273.336 13.3223 273.208C13.9303 273.096 14.4663 272.92 14.9303 272.68C15.4103 272.456 15.7863 272.176 16.0583 271.84C16.3463 271.504 16.4903 271.12 16.4903 270.688V269.872C16.4903 269.44 16.3463 269.056 16.0583 268.72C15.7863 268.384 15.4103 268.104 14.9303 267.88C14.4663 267.64 13.9303 267.464 13.3223 267.352C12.7303 267.224 12.1143 267.16 11.4743 267.16C10.8343 267.16 10.2103 267.224 9.6023 267.352C9.0103 267.464 8.4743 267.64 7.9943 267.88C7.5303 268.104 7.1543 268.384 6.8663 268.72C6.5943 269.056 6.4583 269.44 6.4583 269.872V270.688C6.4583 271.12 6.5943 271.504 6.8663 271.84C7.1543 272.176 7.5303 272.456 7.9943 272.68C8.4743 272.92 9.0103 273.096 9.6023 273.208C10.2103 273.336 10.8343 273.4 11.4743 273.4ZM0.698303 263.824C1.9623 263.296 3.0423 262.824 3.9383 262.408C4.8503 261.976 5.6103 261.576 6.2183 261.208C6.8423 260.84 7.3303 260.488 7.6823 260.152C8.0503 259.8 8.3303 259.44 8.5223 259.072C8.7143 258.704 8.8343 258.312 8.8823 257.896C8.9463 257.464 8.9783 256.976 8.9783 256.432V255.208H1.4423V253.72H10.6343V256.576C10.6343 257.584 10.5303 258.44 10.3223 259.144C10.1143 259.848 9.6823 260.504 9.0263 261.112C8.3703 261.72 7.4343 262.336 6.2183 262.96C5.0023 263.584 3.3943 264.328 1.3943 265.192L0.698303 263.824ZM16.3463 255.712V252.328H18.0023V265.24H16.3463V261.784H11.6183V260.32H16.3463V257.176H11.9783V255.712H16.3463Z" fill="black"/>
<path d="M38.5067 274.264H36.8027V252.328H38.5067V274.264ZM21.5867 267.904C23.4267 266.848 24.8907 265.944 25.9787 265.192C27.0667 264.424 27.8907 263.712 28.4507 263.056C29.0107 262.384 29.3707 261.712 29.5307 261.04C29.7067 260.368 29.7947 259.584 29.7947 258.688V255.928H21.8267V254.392H31.4507V258.712C31.4507 259.448 31.4107 260.112 31.3307 260.704C31.2507 261.296 31.0907 261.856 30.8507 262.384C30.6267 262.912 30.3067 263.424 29.8907 263.92C29.4747 264.416 28.9307 264.936 28.2587 265.48C27.6027 266.024 26.7947 266.608 25.8347 267.232C24.8907 267.84 23.7707 268.52 22.4747 269.272L21.5867 267.904Z" fill="black"/>
<path d="M58.6032 264.136H52.0272V269.704H61.2672V271.168H41.1072V269.704H50.3472V264.136H44.0112V254.248H58.3632V255.712H45.7152V262.672H58.6032V264.136Z" fill="black"/>
<path d="M73.8276 264.376C73.0116 264.376 72.2676 264.24 71.5956 263.968C70.9396 263.68 70.3716 263.312 69.8916 262.864C69.4276 262.4 69.0676 261.88 68.8116 261.304C68.5716 260.712 68.4516 260.12 68.4516 259.528V258.136C68.4516 257.544 68.5716 256.96 68.8116 256.384C69.0676 255.808 69.4276 255.296 69.8916 254.848C70.3716 254.384 70.9396 254.008 71.5956 253.72C72.2676 253.432 73.0116 253.288 73.8276 253.288C74.6436 253.288 75.3796 253.432 76.0356 253.72C76.7076 253.992 77.2756 254.36 77.7396 254.824C78.2196 255.272 78.5796 255.792 78.8196 256.384C79.0756 256.96 79.2036 257.544 79.2036 258.136V259.528C79.2036 260.12 79.0756 260.712 78.8196 261.304C78.5796 261.88 78.2196 262.4 77.7396 262.864C77.2756 263.312 76.7076 263.68 76.0356 263.968C75.3796 264.24 74.6436 264.376 73.8276 264.376ZM73.8276 254.8C73.2676 254.8 72.7556 254.904 72.2916 255.112C71.8436 255.304 71.4516 255.56 71.1156 255.88C70.7956 256.2 70.5396 256.576 70.3476 257.008C70.1716 257.424 70.0836 257.848 70.0836 258.28V259.384C70.0836 259.832 70.1716 260.264 70.3476 260.68C70.5396 261.096 70.7956 261.472 71.1156 261.808C71.4516 262.128 71.8436 262.384 72.2916 262.576C72.7556 262.768 73.2676 262.864 73.8276 262.864C74.3876 262.864 74.8916 262.768 75.3396 262.576C75.8036 262.384 76.1956 262.128 76.5156 261.808C76.8516 261.472 77.1076 261.096 77.2836 260.68C77.4756 260.264 77.5716 259.832 77.5716 259.384V258.28C77.5716 257.832 77.4756 257.4 77.2836 256.984C77.1076 256.568 76.8516 256.2 76.5156 255.88C76.1956 255.544 75.8036 255.28 75.3396 255.088C74.8916 254.896 74.3876 254.8 73.8276 254.8ZM84.9876 258.976H88.3476V260.464H84.9876V268.024H83.3076V252.328H84.9876V258.976ZM73.5876 272.512H85.6596V274H71.8836V266.8H73.5876V272.512Z" fill="black"/>
<path d="M94.7641 260.128C94.7321 260.336 94.5401 260.624 94.1881 260.992C93.8521 261.344 93.4201 261.776 92.8921 262.288C92.4761 262.688 91.94 263.168 91.284 263.728C90.644 264.272 89.9881 264.808 89.3161 265.336L88.2601 264.112C88.9161 263.632 89.5881 263.104 90.2761 262.528C90.9801 261.936 91.6041 261.368 92.1481 260.824C92.5321 260.44 92.8281 260.104 93.0361 259.816C93.2601 259.528 93.4281 259.248 93.5401 258.976C93.6681 258.688 93.7481 258.384 93.7801 258.064C93.8121 257.728 93.8281 257.336 93.8281 256.888V253.36H95.5561V256.84C95.5561 257.288 95.5721 257.672 95.604 257.992C95.636 258.296 95.7081 258.584 95.8201 258.856C95.9481 259.128 96.1241 259.408 96.3481 259.696C96.5881 259.968 96.9081 260.28 97.3081 260.632C97.9001 261.144 98.5001 261.648 99.1081 262.144C99.7161 262.624 100.284 263.056 100.812 263.44L99.8041 264.616C99.1641 264.136 98.5801 263.688 98.0521 263.272C97.5401 262.84 97.076 262.448 96.66 262.096C95.524 261.136 94.9001 260.48 94.7881 260.128H94.7641ZM105.54 258.64H108.9V260.128H105.54V267.976H103.86V252.328H105.54V258.64ZM94.1641 272.512H106.236V274H92.4601V266.656H94.1641V272.512Z" fill="black"/>
<path d="M127.148 274.264H125.444V252.328H127.148V274.264ZM113.276 263.704C113.66 263.272 113.964 262.88 114.188 262.528C114.412 262.176 114.588 261.832 114.716 261.496C114.844 261.144 114.924 260.784 114.956 260.416C115.004 260.048 115.028 259.624 115.028 259.144V253.912H116.78V259.024C116.78 259.488 116.796 259.896 116.828 260.248C116.86 260.584 116.924 260.912 117.02 261.232C117.116 261.536 117.26 261.84 117.452 262.144C117.644 262.448 117.9 262.784 118.22 263.152C118.7 263.712 119.284 264.344 119.972 265.048C120.676 265.752 121.484 266.512 122.396 267.328L121.292 268.48C120.524 267.76 119.812 267.08 119.156 266.44C118.516 265.784 117.956 265.2 117.476 264.688C117.108 264.304 116.772 263.936 116.468 263.584C116.18 263.232 116.004 262.976 115.94 262.816H115.916C115.9 262.896 115.836 263.024 115.724 263.2C115.612 263.36 115.468 263.544 115.292 263.752C115.132 263.96 114.956 264.184 114.764 264.424C114.572 264.648 114.388 264.856 114.212 265.048C114.004 265.272 113.748 265.536 113.444 265.84C113.156 266.144 112.844 266.464 112.508 266.8C112.172 267.136 111.82 267.48 111.452 267.832C111.084 268.184 110.724 268.512 110.372 268.816L109.244 267.64C110.044 266.936 110.772 266.264 111.428 265.624C112.1 264.984 112.716 264.344 113.276 263.704Z" fill="black"/>
<path d="M146.429 265.72C147.325 265.72 148.165 265.816 148.949 266.008C149.749 266.2 150.445 266.472 151.037 266.824C151.629 267.176 152.093 267.608 152.429 268.12C152.781 268.632 152.957 269.2 152.957 269.824V270.736C152.957 271.36 152.781 271.928 152.429 272.44C152.093 272.952 151.629 273.384 151.037 273.736C150.445 274.088 149.749 274.36 148.949 274.552C148.165 274.744 147.325 274.84 146.429 274.84C145.533 274.84 144.685 274.744 143.885 274.552C143.101 274.36 142.413 274.088 141.821 273.736C141.229 273.384 140.757 272.952 140.405 272.44C140.069 271.928 139.901 271.36 139.901 270.736V269.824C139.901 269.184 140.069 268.608 140.405 268.096C140.757 267.584 141.229 267.152 141.821 266.8C142.413 266.448 143.101 266.184 143.885 266.008C144.685 265.816 145.533 265.72 146.429 265.72ZM146.429 273.4C147.069 273.4 147.685 273.336 148.277 273.208C148.869 273.08 149.389 272.896 149.837 272.656C150.285 272.432 150.645 272.152 150.917 271.816C151.189 271.48 151.325 271.096 151.325 270.664V269.896C151.325 269.464 151.189 269.08 150.917 268.744C150.645 268.408 150.285 268.128 149.837 267.904C149.389 267.664 148.869 267.48 148.277 267.352C147.685 267.224 147.069 267.16 146.429 267.16C145.789 267.16 145.173 267.224 144.581 267.352C143.989 267.48 143.469 267.664 143.021 267.904C142.573 268.128 142.213 268.408 141.941 268.744C141.669 269.08 141.533 269.464 141.533 269.896V270.664C141.533 271.096 141.669 271.48 141.941 271.816C142.213 272.152 142.573 272.432 143.021 272.656C143.469 272.896 143.989 273.08 144.581 273.208C145.173 273.336 145.789 273.4 146.429 273.4ZM142.061 259.552C142.029 259.76 141.837 260.048 141.485 260.416C141.149 260.768 140.717 261.2 140.189 261.712C139.773 262.112 139.237 262.592 138.581 263.152C137.941 263.696 137.285 264.232 136.613 264.76L135.557 263.536C136.213 263.056 136.885 262.528 137.573 261.952C138.277 261.36 138.901 260.792 139.445 260.248C139.829 259.864 140.125 259.528 140.333 259.24C140.557 258.952 140.725 258.672 140.837 258.4C140.965 258.112 141.045 257.808 141.077 257.488C141.109 257.152 141.125 256.76 141.125 256.312V253.312H142.853V256.264C142.853 256.712 142.869 257.096 142.901 257.416C142.933 257.72 143.005 258.008 143.117 258.28C143.245 258.552 143.421 258.832 143.645 259.12C143.885 259.392 144.205 259.704 144.605 260.056C145.197 260.568 145.797 261.072 146.405 261.568C147.013 262.048 147.581 262.48 148.109 262.864L147.101 264.04C146.461 263.56 145.877 263.112 145.349 262.696C144.837 262.264 144.373 261.872 143.957 261.52C142.821 260.56 142.197 259.904 142.085 259.552H142.061ZM152.837 257.872H156.197V259.36H152.837V265.24H151.157V252.328H152.837V257.872Z" fill="black"/>
<path d="M159.301 253.096H173.389V258.208H160.981V260.512H173.869V261.928H167.269V264.208H176.509V265.648H156.349V264.208H165.589V261.928H159.373V256.816H171.781V254.512H159.301V253.096ZM158.917 267.808H173.605V274.456H171.925V269.272H158.917V267.808Z" fill="black"/>
<path d="M191.542 263.824C191.782 262.736 191.966 261.584 192.094 260.368C192.222 259.136 192.286 257.992 192.286 256.936V255.232H179.638V253.768H194.014V256.384C194.014 257.664 193.95 258.952 193.822 260.248C193.694 261.528 193.518 262.72 193.294 263.824H197.158V265.288H187.918V274.264H186.214V265.288H176.998V263.824H191.542Z" fill="black"/>
<path d="M215.238 262.336C215.238 262.832 215.118 263.312 214.878 263.776C214.654 264.24 214.326 264.656 213.894 265.024C213.462 265.376 212.934 265.664 212.31 265.888C211.686 266.096 210.982 266.2 210.198 266.2C209.414 266.2 208.71 266.096 208.086 265.888C207.462 265.664 206.934 265.376 206.502 265.024C206.07 264.656 205.734 264.24 205.494 263.776C205.27 263.312 205.158 262.832 205.158 262.336V261.424C205.158 260.928 205.27 260.448 205.494 259.984C205.734 259.52 206.07 259.112 206.502 258.76C206.934 258.392 207.462 258.104 208.086 257.896C208.71 257.672 209.414 257.56 210.198 257.56C210.982 257.56 211.686 257.672 212.31 257.896C212.934 258.104 213.462 258.392 213.894 258.76C214.326 259.112 214.654 259.52 214.878 259.984C215.118 260.448 215.238 260.928 215.238 261.424V262.336ZM210.198 264.76C210.726 264.76 211.198 264.688 211.614 264.544C212.046 264.384 212.406 264.184 212.694 263.944C212.998 263.704 213.23 263.44 213.39 263.152C213.55 262.848 213.63 262.552 213.63 262.264V261.496C213.63 261.208 213.55 260.92 213.39 260.632C213.23 260.328 212.998 260.056 212.694 259.816C212.406 259.576 212.046 259.384 211.614 259.24C211.198 259.08 210.726 259 210.198 259C209.67 259 209.19 259.08 208.758 259.24C208.342 259.384 207.982 259.576 207.678 259.816C207.39 260.056 207.166 260.328 207.006 260.632C206.846 260.92 206.766 261.208 206.766 261.496V262.264C206.766 262.552 206.846 262.848 207.006 263.152C207.166 263.44 207.39 263.704 207.678 263.944C207.982 264.184 208.342 264.384 208.758 264.544C209.19 264.688 209.67 264.76 210.198 264.76ZM220.902 259.024H224.262V260.512H220.902V268.288H219.222V252.328H220.902V259.024ZM209.526 272.512H221.574V274H207.822V267.928H209.526V272.512ZM211.038 254.92H216.534V256.384H203.91V254.92H209.358V252.112H211.038V254.92Z" fill="black"/>
<path d="M234.831 265.72C235.727 265.72 236.567 265.816 237.351 266.008C238.151 266.2 238.847 266.472 239.439 266.824C240.031 267.176 240.495 267.608 240.831 268.12C241.183 268.632 241.359 269.2 241.359 269.824V270.736C241.359 271.36 241.183 271.928 240.831 272.44C240.495 272.952 240.031 273.384 239.439 273.736C238.847 274.088 238.151 274.36 237.351 274.552C236.567 274.744 235.727 274.84 234.831 274.84C233.935 274.84 233.087 274.744 232.287 274.552C231.503 274.36 230.815 274.088 230.223 273.736C229.631 273.384 229.159 272.952 228.807 272.44C228.471 271.928 228.303 271.36 228.303 270.736V269.824C228.303 269.184 228.471 268.608 228.807 268.096C229.159 267.584 229.631 267.152 230.223 266.8C230.815 266.448 231.503 266.184 232.287 266.008C233.087 265.816 233.935 265.72 234.831 265.72ZM230.007 263.872C229.159 263.872 228.407 263.736 227.751 263.464C227.095 263.176 226.535 262.816 226.071 262.384C225.623 261.936 225.279 261.44 225.039 260.896C224.799 260.336 224.679 259.784 224.679 259.24V257.848C224.679 257.304 224.799 256.76 225.039 256.216C225.279 255.656 225.623 255.16 226.071 254.728C226.535 254.28 227.095 253.92 227.751 253.648C228.407 253.36 229.159 253.216 230.007 253.216C230.855 253.216 231.607 253.36 232.263 253.648C232.919 253.92 233.471 254.28 233.919 254.728C234.383 255.16 234.735 255.656 234.975 256.216C235.215 256.76 235.335 257.304 235.335 257.848V259.24C235.335 259.784 235.215 260.336 234.975 260.896C234.735 261.44 234.383 261.936 233.919 262.384C233.471 262.816 232.919 263.176 232.263 263.464C231.607 263.736 230.855 263.872 230.007 263.872ZM234.831 273.4C235.471 273.4 236.087 273.336 236.679 273.208C237.271 273.08 237.791 272.896 238.239 272.656C238.687 272.432 239.047 272.152 239.319 271.816C239.591 271.48 239.727 271.096 239.727 270.664V269.896C239.727 269.464 239.591 269.08 239.319 268.744C239.047 268.408 238.687 268.128 238.239 267.904C237.791 267.664 237.271 267.48 236.679 267.352C236.087 267.224 235.471 267.16 234.831 267.16C234.191 267.16 233.575 267.224 232.983 267.352C232.391 267.48 231.871 267.664 231.423 267.904C230.975 268.128 230.615 268.408 230.343 268.744C230.071 269.08 229.935 269.464 229.935 269.896V270.664C229.935 271.096 230.071 271.48 230.343 271.816C230.615 272.152 230.975 272.432 231.423 272.656C231.871 272.896 232.391 273.08 232.983 273.208C233.575 273.336 234.191 273.4 234.831 273.4ZM230.007 254.728C229.463 254.728 228.967 254.816 228.519 254.992C228.071 255.152 227.679 255.376 227.343 255.664C227.023 255.952 226.767 256.296 226.575 256.696C226.399 257.096 226.311 257.528 226.311 257.992V259.096C226.311 259.56 226.399 259.992 226.575 260.392C226.767 260.792 227.023 261.136 227.343 261.424C227.679 261.712 228.071 261.944 228.519 262.12C228.967 262.28 229.463 262.36 230.007 262.36C230.551 262.36 231.047 262.28 231.495 262.12C231.943 261.944 232.327 261.712 232.647 261.424C232.983 261.136 233.239 260.792 233.415 260.392C233.607 259.992 233.703 259.56 233.703 259.096V257.992C233.703 257.528 233.607 257.096 233.415 256.696C233.239 256.296 232.983 255.952 232.647 255.664C232.327 255.376 231.943 255.152 231.495 254.992C231.047 254.816 230.551 254.728 230.007 254.728ZM241.239 255.64H244.599V257.128H241.239V260.08H244.599V261.568H241.239V265.24H239.583V252.328H241.239V255.64Z" fill="black"/>
<path d="M258.839 260.224H262.031V252.328H263.711V274.264H262.031V261.736H258.839V273.184H257.159V252.784H258.839V260.224ZM254.255 254.416V255.952H247.679V266.752H248.687C249.343 266.752 249.959 266.744 250.535 266.728C251.111 266.712 251.671 266.688 252.215 266.656C252.759 266.624 253.295 266.576 253.823 266.512C254.351 266.448 254.887 266.368 255.431 266.272L255.623 267.784C254.471 267.976 253.351 268.112 252.263 268.192C251.191 268.256 250.047 268.288 248.831 268.288H245.975V254.416H254.255Z" fill="black"/>
<path d="M272.144 265.576C271.376 265.576 270.68 265.48 270.056 265.288C269.448 265.08 268.92 264.808 268.472 264.472C268.04 264.136 267.704 263.752 267.464 263.32C267.24 262.872 267.128 262.4 267.128 261.904V261.04C267.128 260.544 267.24 260.08 267.464 259.648C267.704 259.2 268.04 258.808 268.472 258.472C268.92 258.136 269.448 257.872 270.056 257.68C270.68 257.472 271.376 257.368 272.144 257.368C272.912 257.368 273.6 257.472 274.208 257.68C274.832 257.872 275.36 258.136 275.792 258.472C276.24 258.808 276.576 259.2 276.8 259.648C277.04 260.08 277.16 260.544 277.16 261.04V261.904C277.16 262.4 277.04 262.872 276.8 263.32C276.576 263.752 276.24 264.136 275.792 264.472C275.36 264.808 274.832 265.08 274.208 265.288C273.6 265.48 272.912 265.576 272.144 265.576ZM272.144 258.784C271.632 258.784 271.168 258.848 270.752 258.976C270.336 259.088 269.976 259.256 269.672 259.48C269.384 259.688 269.152 259.936 268.976 260.224C268.816 260.496 268.736 260.792 268.736 261.112V261.832C268.736 262.152 268.816 262.456 268.976 262.744C269.152 263.016 269.384 263.264 269.672 263.488C269.976 263.696 270.336 263.864 270.752 263.992C271.168 264.104 271.632 264.16 272.144 264.16C272.64 264.16 273.096 264.104 273.512 263.992C273.944 263.864 274.304 263.696 274.592 263.488C274.896 263.264 275.128 263.016 275.288 262.744C275.464 262.456 275.552 262.152 275.552 261.832V261.112C275.552 260.792 275.464 260.496 275.288 260.224C275.128 259.936 274.896 259.688 274.592 259.48C274.304 259.256 273.944 259.088 273.512 258.976C273.096 258.848 272.64 258.784 272.144 258.784ZM269.096 267.256H282.848V274.456H281.168V268.744H269.096V267.256ZM282.848 258.328H286.208V259.816H282.848V265.96H281.168V252.328H282.848V258.328ZM272.984 254.8H278.48V256.264H265.856V254.8H271.304V252.016H272.984V254.8Z" fill="black"/>
<path d="M303.352 254.056V260.56H290.872V264.112H303.856V265.576H297.16V269.704H306.4V271.168H286.24V269.704H295.48V265.576H289.216V259.12H301.696V255.52H289.144V254.056H303.352Z" fill="black"/>
<path d="M324.048 266.416C324.048 265.024 323.704 264.016 323.016 263.392C322.344 262.752 321.384 262.432 320.136 262.432C319.4 262.432 318.744 262.568 318.168 262.84C317.592 263.112 317.112 263.432 316.728 263.8H315.144L315.696 254.32H324.6V255.856H317.184L316.92 262.144C317.304 261.776 317.824 261.48 318.48 261.256C319.136 261.032 319.824 260.92 320.544 260.92C321.392 260.92 322.136 261.064 322.776 261.352C323.432 261.624 323.976 262 324.408 262.48C324.84 262.96 325.16 263.536 325.368 264.208C325.592 264.864 325.704 265.576 325.704 266.344V266.704C325.704 267.328 325.6 267.952 325.392 268.576C325.184 269.184 324.848 269.736 324.384 270.232C323.936 270.712 323.336 271.104 322.584 271.408C321.832 271.728 320.92 271.888 319.848 271.888C318.664 271.888 317.624 271.712 316.728 271.36C315.832 271.024 315 270.56 314.232 269.968L315.096 268.6C315.928 269.24 316.72 269.696 317.472 269.968C318.24 270.224 319.032 270.352 319.848 270.352C320.616 270.352 321.264 270.24 321.792 270.016C322.336 269.776 322.776 269.48 323.112 269.128C323.448 268.776 323.688 268.392 323.832 267.976C323.976 267.544 324.048 267.128 324.048 266.728V266.416Z" fill="black"/>
<path d="M338.439 266.416C338.439 265.024 338.095 264.016 337.407 263.392C336.735 262.752 335.775 262.432 334.527 262.432C333.791 262.432 333.135 262.568 332.559 262.84C331.983 263.112 331.503 263.432 331.119 263.8H329.535L330.087 254.32H338.991V255.856H331.575L331.311 262.144C331.695 261.776 332.215 261.48 332.871 261.256C333.527 261.032 334.215 260.92 334.935 260.92C335.783 260.92 336.527 261.064 337.167 261.352C337.823 261.624 338.367 262 338.799 262.48C339.231 262.96 339.551 263.536 339.759 264.208C339.983 264.864 340.095 265.576 340.095 266.344V266.704C340.095 267.328 339.991 267.952 339.783 268.576C339.575 269.184 339.239 269.736 338.775 270.232C338.327 270.712 337.727 271.104 336.975 271.408C336.223 271.728 335.311 271.888 334.239 271.888C333.055 271.888 332.015 271.712 331.119 271.36C330.223 271.024 329.391 270.56 328.623 269.968L329.487 268.6C330.319 269.24 331.111 269.696 331.863 269.968C332.631 270.224 333.423 270.352 334.239 270.352C335.007 270.352 335.655 270.24 336.183 270.016C336.727 269.776 337.167 269.48 337.503 269.128C337.839 268.776 338.079 268.392 338.223 267.976C338.367 267.544 338.439 267.128 338.439 266.728V266.416Z" fill="black"/>
<path d="M643.602 164.98H652.89C654.354 164.98 655.626 165.172 656.706 165.556C657.786 165.916 658.674 166.432 659.37 167.104C660.09 167.752 660.618 168.532 660.954 169.444C661.314 170.356 661.494 171.34 661.494 172.396V173.152C661.494 174.208 661.302 175.204 660.918 176.14C660.558 177.052 660.018 177.856 659.298 178.552C658.578 179.248 657.678 179.8 656.598 180.208C655.542 180.616 654.306 180.82 652.89 180.82H647.166V190.936H643.602V164.98ZM647.166 168.076V177.724H652.278C656.022 177.724 657.894 176.176 657.894 173.08V172.432C657.894 170.944 657.438 169.852 656.526 169.156C655.638 168.436 654.354 168.076 652.674 168.076H647.166Z" fill="#818181"/>
<path d="M681.913 190.936H678.421V178.696C678.421 177.04 678.073 175.84 677.377 175.096C676.681 174.352 675.601 173.98 674.137 173.98C673.537 173.98 672.937 174.088 672.337 174.304C671.761 174.496 671.233 174.796 670.753 175.204C670.297 175.588 669.913 176.08 669.601 176.68C669.313 177.28 669.169 177.964 669.169 178.732V190.936H665.677V163.72H669.169V173.62C669.769 172.732 670.549 172.06 671.509 171.604C672.493 171.124 673.657 170.884 675.001 170.884C675.961 170.884 676.861 171.028 677.701 171.316C678.541 171.604 679.273 172.036 679.897 172.612C680.521 173.188 681.013 173.92 681.373 174.808C681.733 175.696 681.913 176.728 681.913 177.904V190.936Z" fill="#818181"/>
<path d="M695.004 170.884C697.716 170.884 699.852 171.664 701.412 173.224C702.996 174.784 703.788 176.992 703.788 179.848V182.26C703.788 185.116 702.996 187.324 701.412 188.884C699.852 190.444 697.716 191.224 695.004 191.224C692.292 191.224 690.144 190.444 688.56 188.884C687 187.324 686.22 185.116 686.22 182.26V179.848C686.22 176.968 687 174.76 688.56 173.224C690.144 171.664 692.292 170.884 695.004 170.884ZM695.004 188.164C696.564 188.164 697.824 187.66 698.784 186.652C699.768 185.62 700.26 184.06 700.26 181.972V180.136C700.26 178.048 699.768 176.5 698.784 175.492C697.824 174.46 696.564 173.944 695.004 173.944C693.444 173.944 692.172 174.46 691.188 175.492C690.228 176.5 689.748 178.048 689.748 180.136V181.972C689.748 184.06 690.228 185.62 691.188 186.652C692.172 187.66 693.444 188.164 695.004 188.164Z" fill="#818181"/>
<path d="M724.628 190.936H721.136V178.696C721.136 177.04 720.788 175.84 720.092 175.096C719.396 174.352 718.316 173.98 716.852 173.98C716.252 173.98 715.652 174.088 715.052 174.304C714.476 174.496 713.948 174.796 713.468 175.204C713.012 175.588 712.628 176.08 712.316 176.68C712.028 177.28 711.884 177.964 711.884 178.732V190.936H708.392V171.244H711.776V173.728H711.812C712.412 172.816 713.204 172.12 714.188 171.64C715.172 171.136 716.348 170.884 717.716 170.884C718.676 170.884 719.576 171.028 720.416 171.316C721.256 171.604 721.988 172.036 722.612 172.612C723.236 173.188 723.728 173.92 724.088 174.808C724.448 175.696 724.628 176.728 724.628 177.904V190.936Z" fill="#818181"/>
<path d="M737.395 173.872C736.675 173.872 736.003 174.004 735.379 174.268C734.779 174.508 734.251 174.856 733.795 175.312C733.363 175.744 733.015 176.284 732.751 176.932C732.511 177.556 732.391 178.24 732.391 178.984V179.488H742.255V178.84C742.255 177.328 741.823 176.128 740.959 175.24C740.095 174.328 738.907 173.872 737.395 173.872ZM745.171 189.064C744.307 189.664 743.275 190.168 742.075 190.576C740.875 191.008 739.375 191.224 737.575 191.224C736.351 191.224 735.211 191.044 734.155 190.684C733.123 190.348 732.211 189.82 731.419 189.1C730.651 188.356 730.039 187.408 729.583 186.256C729.151 185.104 728.935 183.736 728.935 182.152V179.92C728.935 178.432 729.139 177.124 729.547 175.996C729.979 174.868 730.567 173.932 731.311 173.188C732.079 172.42 732.979 171.844 734.011 171.46C735.043 171.076 736.171 170.884 737.395 170.884C739.915 170.884 741.919 171.652 743.407 173.188C744.895 174.724 745.639 176.896 745.639 179.704V182.332H732.391V182.476C732.391 184.348 732.883 185.776 733.867 186.76C734.851 187.72 736.135 188.2 737.719 188.2C739.015 188.2 740.119 188.044 741.031 187.732C741.967 187.42 742.855 186.988 743.695 186.436L745.171 189.064Z" fill="#818181"/>
<path d="M626.041 264.304C626.041 266.752 625.577 268.632 624.649 269.944C623.721 271.24 622.217 271.888 620.137 271.888C618.089 271.888 616.601 271.232 615.673 269.92C614.745 268.608 614.281 266.736 614.281 264.304V261.616C614.281 259.2 614.753 257.336 615.697 256.024C616.641 254.712 618.121 254.056 620.137 254.056C622.185 254.056 623.681 254.712 624.625 256.024C625.569 257.32 626.041 259.184 626.041 261.616V264.304ZM624.313 261.592C624.313 259.448 623.961 257.912 623.257 256.984C622.569 256.04 621.529 255.568 620.137 255.568C618.809 255.568 617.785 256.04 617.065 256.984C616.361 257.928 616.009 259.464 616.009 261.592V264.328C616.009 266.472 616.361 268.016 617.065 268.96C617.785 269.904 618.809 270.376 620.137 270.376C621.513 270.376 622.553 269.912 623.257 268.984C623.961 268.04 624.313 266.488 624.313 264.328V261.592Z" fill="black"/>
<path d="M634.816 271.624V256.432L630.64 258.976L629.872 257.632L635.224 254.32H636.496V271.624H634.816Z" fill="black"/>
<path d="M654.822 264.304C654.822 266.752 654.358 268.632 653.43 269.944C652.502 271.24 650.998 271.888 648.918 271.888C646.87 271.888 645.382 271.232 644.454 269.92C643.526 268.608 643.062 266.736 643.062 264.304V261.616C643.062 259.2 643.534 257.336 644.478 256.024C645.422 254.712 646.902 254.056 648.918 254.056C650.966 254.056 652.462 254.712 653.406 256.024C654.35 257.32 654.822 259.184 654.822 261.616V264.304ZM653.094 261.592C653.094 259.448 652.742 257.912 652.038 256.984C651.35 256.04 650.31 255.568 648.918 255.568C647.59 255.568 646.566 256.04 645.846 256.984C645.142 257.928 644.79 259.464 644.79 261.592V264.328C644.79 266.472 645.142 268.016 645.846 268.96C646.566 269.904 647.59 270.376 648.918 270.376C650.294 270.376 651.334 269.912 652.038 268.984C652.742 268.04 653.094 266.488 653.094 264.328V261.592Z" fill="black"/>
<path d="M657.333 262.216H664.821V263.752H657.333V262.216Z" fill="black"/>
<path d="M677.423 266.416C677.423 265.024 677.079 264.016 676.391 263.392C675.719 262.752 674.759 262.432 673.511 262.432C672.775 262.432 672.119 262.568 671.543 262.84C670.967 263.112 670.487 263.432 670.103 263.8H668.519L669.071 254.32H677.975V255.856H670.559L670.295 262.144C670.679 261.776 671.199 261.48 671.855 261.256C672.511 261.032 673.199 260.92 673.919 260.92C674.767 260.92 675.511 261.064 676.151 261.352C676.807 261.624 677.351 262 677.783 262.48C678.215 262.96 678.535 263.536 678.743 264.208C678.967 264.864 679.079 265.576 679.079 266.344V266.704C679.079 267.328 678.975 267.952 678.767 268.576C678.559 269.184 678.223 269.736 677.759 270.232C677.311 270.712 676.711 271.104 675.959 271.408C675.207 271.728 674.295 271.888 673.223 271.888C672.039 271.888 670.999 271.712 670.103 271.36C669.207 271.024 668.375 270.56 667.607 269.968L668.471 268.6C669.303 269.24 670.095 269.696 670.847 269.968C671.615 270.224 672.407 270.352 673.223 270.352C673.991 270.352 674.639 270.24 675.167 270.016C675.711 269.776 676.151 269.48 676.487 269.128C676.823 268.776 677.063 268.392 677.207 267.976C677.351 267.544 677.423 267.128 677.423 266.728V266.416Z" fill="black"/>
<path d="M691.814 266.416C691.814 265.024 691.47 264.016 690.782 263.392C690.11 262.752 689.15 262.432 687.902 262.432C687.166 262.432 686.51 262.568 685.934 262.84C685.358 263.112 684.878 263.432 684.494 263.8H682.91L683.462 254.32H692.366V255.856H684.95L684.686 262.144C685.07 261.776 685.59 261.48 686.246 261.256C686.902 261.032 687.59 260.92 688.31 260.92C689.158 260.92 689.902 261.064 690.542 261.352C691.198 261.624 691.742 262 692.174 262.48C692.606 262.96 692.926 263.536 693.134 264.208C693.358 264.864 693.47 265.576 693.47 266.344V266.704C693.47 267.328 693.366 267.952 693.158 268.576C692.95 269.184 692.614 269.736 692.15 270.232C691.702 270.712 691.102 271.104 690.35 271.408C689.598 271.728 688.686 271.888 687.614 271.888C686.43 271.888 685.39 271.712 684.494 271.36C683.598 271.024 682.766 270.56 681.998 269.968L682.862 268.6C683.694 269.24 684.486 269.696 685.238 269.968C686.006 270.224 686.798 270.352 687.614 270.352C688.382 270.352 689.03 270.24 689.558 270.016C690.102 269.776 690.542 269.48 690.878 269.128C691.214 268.776 691.454 268.392 691.598 267.976C691.742 267.544 691.814 267.128 691.814 266.728V266.416Z" fill="black"/>
<path d="M697.565 269.296C698.109 269.616 698.693 269.872 699.317 270.064C699.941 270.256 700.597 270.352 701.285 270.352C702.165 270.352 702.901 270.192 703.493 269.872C704.085 269.536 704.557 269.056 704.909 268.432C705.261 267.808 705.517 267.048 705.677 266.152C705.837 265.256 705.933 264.248 705.965 263.128C705.837 263.384 705.653 263.656 705.413 263.944C705.173 264.232 704.869 264.504 704.501 264.76C704.149 265 703.725 265.208 703.229 265.384C702.749 265.544 702.205 265.624 701.597 265.624C700.861 265.624 700.157 265.504 699.485 265.264C698.829 265.008 698.245 264.648 697.733 264.184C697.237 263.72 696.837 263.16 696.533 262.504C696.245 261.832 696.101 261.072 696.101 260.224V259.648C696.101 258.8 696.245 258.032 696.533 257.344C696.821 256.656 697.213 256.072 697.709 255.592C698.221 255.096 698.821 254.72 699.509 254.464C700.213 254.192 700.965 254.056 701.765 254.056C702.565 254.056 703.317 254.2 704.021 254.488C704.741 254.76 705.365 255.192 705.893 255.784C706.421 256.36 706.837 257.096 707.141 257.992C707.461 258.872 707.621 259.912 707.621 261.112V261.832C707.621 263.736 707.485 265.336 707.213 266.632C706.957 267.912 706.565 268.944 706.037 269.728C705.509 270.512 704.845 271.064 704.045 271.384C703.245 271.72 702.309 271.888 701.237 271.888C700.453 271.888 699.693 271.784 698.957 271.576C698.221 271.368 697.525 271.08 696.869 270.712L697.565 269.296ZM705.797 259.984C705.797 259.344 705.701 258.752 705.509 258.208C705.317 257.664 705.045 257.2 704.693 256.816C704.341 256.416 703.917 256.112 703.421 255.904C702.941 255.68 702.405 255.568 701.813 255.568C701.221 255.568 700.677 255.664 700.181 255.856C699.685 256.048 699.253 256.32 698.885 256.672C698.533 257.024 698.253 257.464 698.045 257.992C697.853 258.504 697.757 259.08 697.757 259.72V260.08C697.757 260.736 697.869 261.32 698.093 261.832C698.317 262.328 698.613 262.752 698.981 263.104C699.349 263.44 699.773 263.704 700.253 263.896C700.749 264.072 701.261 264.16 701.789 264.16C702.285 264.16 702.773 264.064 703.253 263.872C703.749 263.68 704.181 263.408 704.549 263.056C704.917 262.704 705.213 262.296 705.437 261.832C705.677 261.368 705.797 260.856 705.797 260.296V259.984Z" fill="black"/>
<path d="M715.267 271.624H713.371L720.403 255.856H710.683V254.32H722.275V255.616L715.267 271.624Z" fill="black"/>
<path d="M724.786 262.216H732.274V263.752H724.786V262.216Z" fill="black"/>
<path d="M739.549 271.624H737.653L744.685 255.856H734.965V254.32H746.557V255.616L739.549 271.624Z" fill="black"/>
<path d="M759.147 260.8V266.248H761.691V267.784H759.147V271.624H757.467V267.784H748.803V266.248L757.203 254.32H759.123L750.747 266.248H757.467V260.8H759.147Z" fill="black"/>
<path d="M764.274 256.744C764.482 256.392 764.738 256.056 765.042 255.736C765.346 255.416 765.698 255.136 766.098 254.896C766.514 254.64 766.978 254.44 767.49 254.296C768.018 254.136 768.61 254.056 769.266 254.056C770.05 254.056 770.754 254.16 771.378 254.368C772.018 254.576 772.554 254.872 772.986 255.256C773.434 255.624 773.778 256.08 774.018 256.624C774.258 257.152 774.378 257.736 774.378 258.376V258.616C774.378 258.952 774.33 259.312 774.234 259.696C774.138 260.064 773.978 260.424 773.754 260.776C773.53 261.128 773.226 261.456 772.842 261.76C772.458 262.064 771.978 262.312 771.402 262.504C772.602 262.712 773.506 263.184 774.114 263.92C774.738 264.656 775.05 265.528 775.05 266.536V266.896C775.05 267.52 774.946 268.128 774.738 268.72C774.53 269.312 774.194 269.848 773.73 270.328C773.282 270.792 772.682 271.168 771.93 271.456C771.194 271.744 770.298 271.888 769.242 271.888C768.234 271.888 767.258 271.728 766.314 271.408C765.386 271.104 764.514 270.624 763.698 269.968L764.538 268.624C765.386 269.232 766.178 269.672 766.914 269.944C767.666 270.216 768.442 270.352 769.242 270.352C769.994 270.352 770.634 270.248 771.162 270.04C771.69 269.832 772.114 269.568 772.434 269.248C772.77 268.912 773.01 268.544 773.154 268.144C773.314 267.728 773.394 267.32 773.394 266.92V266.608C773.394 265.952 773.258 265.416 772.986 265C772.73 264.568 772.402 264.232 772.002 263.992C771.618 263.736 771.186 263.56 770.706 263.464C770.242 263.368 769.802 263.32 769.386 263.32H767.442V261.88H769.458C770.002 261.88 770.474 261.784 770.874 261.592C771.274 261.384 771.602 261.12 771.858 260.8C772.13 260.48 772.33 260.128 772.458 259.744C772.602 259.344 772.674 258.96 772.674 258.592V258.4C772.674 257.536 772.37 256.856 771.762 256.36C771.17 255.848 770.346 255.592 769.29 255.592C768.602 255.592 767.938 255.736 767.298 256.024C766.658 256.296 766.09 256.824 765.594 257.608L764.274 256.744Z" fill="black"/>
<path d="M788.24 256.6C787.696 256.28 787.112 256.032 786.488 255.856C785.88 255.664 785.24 255.568 784.568 255.568C783.752 255.568 783.064 255.736 782.504 256.072C781.944 256.392 781.48 256.864 781.112 257.488C780.744 258.112 780.464 258.88 780.272 259.792C780.08 260.688 779.952 261.712 779.888 262.864C780.016 262.608 780.2 262.336 780.44 262.048C780.696 261.76 781 261.496 781.352 261.256C781.72 261.016 782.144 260.824 782.624 260.68C783.104 260.52 783.648 260.44 784.256 260.44C784.992 260.44 785.688 260.56 786.344 260.8C787.016 261.04 787.6 261.392 788.096 261.856C788.608 262.304 789.008 262.864 789.296 263.536C789.6 264.192 789.752 264.944 789.752 265.792V266.368C789.752 267.216 789.608 267.984 789.32 268.672C789.032 269.344 788.632 269.92 788.12 270.4C787.624 270.88 787.024 271.248 786.32 271.504C785.632 271.76 784.888 271.888 784.088 271.888C783.272 271.888 782.504 271.744 781.784 271.456C781.08 271.184 780.464 270.76 779.936 270.184C779.408 269.608 778.992 268.88 778.688 268C778.384 267.104 778.232 266.056 778.232 264.856V264.28C778.232 262.424 778.376 260.848 778.664 259.552C778.968 258.256 779.392 257.2 779.936 256.384C780.48 255.568 781.144 254.976 781.928 254.608C782.712 254.24 783.6 254.056 784.592 254.056C785.376 254.056 786.144 254.16 786.896 254.368C787.664 254.576 788.376 254.864 789.032 255.232L788.24 256.6ZM780.056 266.032C780.056 266.688 780.152 267.28 780.344 267.808C780.536 268.336 780.808 268.792 781.16 269.176C781.512 269.56 781.928 269.856 782.408 270.064C782.904 270.272 783.448 270.376 784.04 270.376C784.632 270.376 785.176 270.288 785.672 270.112C786.168 269.92 786.592 269.656 786.944 269.32C787.312 268.968 787.592 268.544 787.784 268.048C787.992 267.536 788.096 266.952 788.096 266.296V265.936C788.096 265.296 787.984 264.728 787.76 264.232C787.536 263.72 787.24 263.296 786.872 262.96C786.504 262.608 786.072 262.344 785.576 262.168C785.096 261.992 784.592 261.904 784.064 261.904C783.552 261.904 783.056 262 782.576 262.192C782.096 262.384 781.672 262.648 781.304 262.984C780.936 263.32 780.632 263.728 780.392 264.208C780.168 264.672 780.056 265.176 780.056 265.72V266.032Z" fill="black"/>
<path d="M1200.03 164.98V168.04H1187.43V176.104H1199.27V179.164H1187.43V187.876H1200.28V190.936H1183.86V164.98H1200.03Z" fill="#818181"/>
<path d="M1232.27 190.936H1228.78V179.128C1228.78 175.744 1227.54 174.052 1225.07 174.052C1224.52 174.052 1223.97 174.148 1223.41 174.34C1222.89 174.508 1222.41 174.784 1221.97 175.168C1221.54 175.528 1221.18 176.008 1220.89 176.608C1220.63 177.184 1220.5 177.868 1220.5 178.66V190.936H1217.01V179.128C1217.01 175.744 1215.77 174.052 1213.3 174.052C1212.75 174.052 1212.19 174.136 1211.64 174.304C1211.11 174.472 1210.63 174.736 1210.2 175.096C1209.77 175.456 1209.41 175.924 1209.12 176.5C1208.86 177.052 1208.73 177.712 1208.73 178.48V190.936H1205.23V171.244H1208.69V173.908H1208.73C1209.11 173.044 1209.73 172.324 1210.6 171.748C1211.49 171.172 1212.61 170.884 1213.98 170.884C1215.3 170.884 1216.44 171.172 1217.4 171.748C1218.39 172.3 1219.13 173.104 1219.63 174.16C1220.26 173.2 1221.04 172.42 1221.97 171.82C1222.93 171.196 1224.19 170.884 1225.75 170.884C1227.79 170.884 1229.39 171.508 1230.54 172.756C1231.69 173.98 1232.27 175.732 1232.27 178.012V190.936Z" fill="#818181"/>
<path d="M1243.08 191.224C1241.09 191.224 1239.51 190.732 1238.33 189.748C1237.18 188.764 1236.6 187.408 1236.6 185.68V184.708C1236.6 183.028 1237.17 181.66 1238.3 180.604C1239.42 179.548 1241.25 179.02 1243.77 179.02H1248.77V177.868C1248.77 176.548 1248.45 175.576 1247.8 174.952C1247.18 174.304 1246.14 173.98 1244.7 173.98C1243.55 173.98 1242.54 174.16 1241.68 174.52C1240.84 174.88 1239.96 175.36 1239.05 175.96L1237.32 173.368C1238.28 172.696 1239.36 172.12 1240.56 171.64C1241.76 171.136 1243.16 170.884 1244.74 170.884C1245.84 170.884 1246.85 171.028 1247.76 171.316C1248.68 171.58 1249.46 171.988 1250.1 172.54C1250.78 173.068 1251.29 173.728 1251.65 174.52C1252.04 175.288 1252.23 176.164 1252.23 177.148V190.936H1248.88V188.56H1248.84C1248.65 188.92 1248.39 189.256 1248.05 189.568C1247.74 189.856 1247.39 190.108 1247.01 190.324C1246.48 190.612 1245.9 190.828 1245.28 190.972C1244.68 191.14 1243.95 191.224 1243.08 191.224ZM1248.77 181.972H1243.84C1242.47 181.972 1241.49 182.236 1240.89 182.764C1240.31 183.292 1240.02 184.024 1240.02 184.96V185.464C1240.02 186.424 1240.36 187.12 1241.03 187.552C1241.7 187.984 1242.51 188.2 1243.44 188.2C1244.31 188.2 1245.05 188.104 1245.68 187.912C1246.32 187.696 1246.91 187.384 1247.44 186.976C1247.92 186.616 1248.26 186.208 1248.45 185.752C1248.66 185.272 1248.77 184.66 1248.77 183.916V181.972Z" fill="#818181"/>
<path d="M1261.08 171.244V190.936H1257.58V171.244H1261.08ZM1261.18 164.188V168.004H1257.48V164.188H1261.18Z" fill="#818181"/>
<path d="M1270.28 163.72V190.936H1266.79V163.72H1270.28Z" fill="#818181"/>
<path d="M1096.72 269.68H1096.69C1096.33 270.336 1095.78 270.816 1095.06 271.12C1094.36 271.424 1093.63 271.576 1092.88 271.576C1092.13 271.576 1091.44 271.448 1090.81 271.192C1090.19 270.952 1089.65 270.6 1089.18 270.136C1088.72 269.656 1088.36 269.072 1088.1 268.384C1087.85 267.696 1087.72 266.912 1087.72 266.032V263.992C1087.72 263.112 1087.85 262.328 1088.1 261.64C1088.36 260.952 1088.71 260.376 1089.16 259.912C1089.62 259.432 1090.17 259.072 1090.79 258.832C1091.43 258.576 1092.12 258.448 1092.85 258.448C1093.81 258.448 1094.61 258.632 1095.25 259C1095.91 259.368 1096.41 259.792 1096.74 260.272V258.688H1098.35V271.408C1098.35 273.248 1097.87 274.632 1096.91 275.56C1095.97 276.504 1094.69 276.976 1093.07 276.976C1092.16 276.976 1091.34 276.856 1090.62 276.616C1089.92 276.376 1089.29 276.048 1088.75 275.632L1089.49 274.36C1089.8 274.568 1090.09 274.736 1090.36 274.864C1090.63 275.008 1090.9 275.12 1091.17 275.2C1091.46 275.296 1091.76 275.36 1092.06 275.392C1092.37 275.424 1092.7 275.44 1093.07 275.44C1094.27 275.44 1095.17 275.112 1095.78 274.456C1096.41 273.816 1096.72 272.816 1096.72 271.456V269.68ZM1089.35 265.792C1089.35 267.184 1089.68 268.256 1090.33 269.008C1090.99 269.76 1091.86 270.136 1092.95 270.136C1093.48 270.136 1093.97 270.072 1094.41 269.944C1094.88 269.8 1095.28 269.592 1095.61 269.32C1095.95 269.032 1096.21 268.68 1096.41 268.264C1096.61 267.832 1096.72 267.328 1096.72 266.752V263.104C1096.72 262.72 1096.62 262.344 1096.43 261.976C1096.25 261.592 1096 261.248 1095.66 260.944C1095.33 260.624 1094.93 260.368 1094.46 260.176C1094 259.984 1093.49 259.888 1092.95 259.888C1091.85 259.888 1090.97 260.272 1090.31 261.04C1089.67 261.792 1089.35 262.856 1089.35 264.232V265.792Z" fill="black"/>
<path d="M1102.43 254.392H1104.21V256.216H1102.43V254.392ZM1104.14 273.208C1104.14 274.616 1103.85 275.592 1103.27 276.136C1102.71 276.696 1101.89 276.976 1100.8 276.976C1100.45 276.976 1100.06 276.944 1099.65 276.88C1099.22 276.832 1098.87 276.76 1098.62 276.664L1098.86 275.32C1099.43 275.48 1100.04 275.56 1100.68 275.56C1101.34 275.56 1101.8 275.376 1102.07 275.008C1102.36 274.64 1102.5 274.016 1102.5 273.136V258.688H1104.14V273.208Z" fill="black"/>
<path d="M1112.47 271.816C1111 271.816 1109.88 271.408 1109.11 270.592C1108.34 269.776 1107.96 268.696 1107.96 267.352V258.688H1109.59V266.944C1109.59 267.408 1109.63 267.848 1109.71 268.264C1109.8 268.664 1109.96 269.024 1110.19 269.344C1110.41 269.648 1110.72 269.888 1111.12 270.064C1111.54 270.24 1112.07 270.328 1112.71 270.328C1113.25 270.328 1113.75 270.232 1114.2 270.04C1114.66 269.848 1115.05 269.6 1115.37 269.296C1115.71 268.976 1115.96 268.624 1116.14 268.24C1116.33 267.856 1116.43 267.472 1116.43 267.088V258.688H1118.06V271.624H1116.45V269.824C1116.15 270.32 1115.66 270.776 1114.99 271.192C1114.33 271.608 1113.49 271.816 1112.47 271.816Z" fill="black"/>
<path d="M1133.09 264.304C1133.09 266.752 1132.62 268.632 1131.7 269.944C1130.77 271.24 1129.26 271.888 1127.18 271.888C1125.14 271.888 1123.65 271.232 1122.72 269.92C1121.79 268.608 1121.33 266.736 1121.33 264.304V261.616C1121.33 259.2 1121.8 257.336 1122.74 256.024C1123.69 254.712 1125.17 254.056 1127.18 254.056C1129.23 254.056 1130.73 254.712 1131.67 256.024C1132.62 257.32 1133.09 259.184 1133.09 261.616V264.304ZM1131.36 261.592C1131.36 259.448 1131.01 257.912 1130.3 256.984C1129.62 256.04 1128.58 255.568 1127.18 255.568C1125.86 255.568 1124.83 256.04 1124.11 256.984C1123.41 257.928 1123.06 259.464 1123.06 261.592V264.328C1123.06 266.472 1123.41 268.016 1124.11 268.96C1124.83 269.904 1125.86 270.376 1127.18 270.376C1128.56 270.376 1129.6 269.912 1130.3 268.984C1131.01 268.04 1131.36 266.488 1131.36 264.328V261.592Z" fill="black"/>
<path d="M1138.21 258.736C1138.21 259.2 1138.29 259.64 1138.45 260.056C1138.61 260.472 1138.84 260.832 1139.13 261.136C1139.43 261.44 1139.79 261.68 1140.21 261.856C1140.62 262.032 1141.09 262.12 1141.6 262.12C1142.11 262.12 1142.57 262.032 1142.99 261.856C1143.41 261.68 1143.76 261.44 1144.05 261.136C1144.35 260.832 1144.58 260.472 1144.74 260.056C1144.9 259.64 1144.98 259.2 1144.98 258.736V258.448C1144.98 257.552 1144.67 256.848 1144.05 256.336C1143.44 255.808 1142.62 255.544 1141.6 255.544C1140.56 255.544 1139.73 255.808 1139.13 256.336C1138.52 256.848 1138.21 257.552 1138.21 258.448V258.736ZM1137.73 267.184C1137.73 267.632 1137.82 268.048 1138 268.432C1138.17 268.816 1138.43 269.152 1138.77 269.44C1139.1 269.728 1139.5 269.96 1139.97 270.136C1140.45 270.296 1140.99 270.376 1141.6 270.376C1142.21 270.376 1142.75 270.296 1143.23 270.136C1143.71 269.96 1144.11 269.728 1144.43 269.44C1144.77 269.152 1145.02 268.816 1145.2 268.432C1145.37 268.048 1145.46 267.632 1145.46 267.184V266.896C1145.46 266.384 1145.37 265.92 1145.17 265.504C1144.98 265.088 1144.72 264.728 1144.38 264.424C1144.05 264.12 1143.64 263.888 1143.16 263.728C1142.69 263.568 1142.17 263.488 1141.6 263.488C1141.04 263.488 1140.52 263.568 1140.04 263.728C1139.57 263.888 1139.17 264.12 1138.81 264.424C1138.48 264.712 1138.21 265.064 1138.02 265.48C1137.83 265.896 1137.73 266.368 1137.73 266.896V267.184ZM1136.03 266.824C1136.03 265.864 1136.32 265.024 1136.89 264.304C1137.49 263.568 1138.25 263.056 1139.2 262.768C1138.37 262.384 1137.72 261.848 1137.25 261.16C1136.81 260.472 1136.58 259.672 1136.58 258.76V258.376C1136.58 257.752 1136.7 257.176 1136.94 256.648C1137.2 256.12 1137.55 255.664 1138 255.28C1138.45 254.896 1138.97 254.6 1139.58 254.392C1140.21 254.168 1140.88 254.056 1141.6 254.056C1142.32 254.056 1142.98 254.168 1143.59 254.392C1144.21 254.6 1144.75 254.896 1145.2 255.28C1145.65 255.664 1145.99 256.12 1146.23 256.648C1146.49 257.176 1146.61 257.752 1146.61 258.376V258.76C1146.61 259.672 1146.38 260.472 1145.92 261.16C1145.47 261.848 1144.82 262.384 1143.97 262.768C1144.44 262.912 1144.86 263.112 1145.25 263.368C1145.65 263.624 1145.98 263.936 1146.25 264.304C1146.54 264.656 1146.77 265.048 1146.93 265.48C1147.09 265.896 1147.17 266.344 1147.17 266.824V267.232C1147.17 267.92 1147.03 268.552 1146.76 269.128C1146.5 269.704 1146.13 270.2 1145.63 270.616C1145.15 271.016 1144.57 271.328 1143.88 271.552C1143.19 271.776 1142.43 271.888 1141.6 271.888C1140.77 271.888 1140.01 271.776 1139.32 271.552C1138.63 271.328 1138.04 271.016 1137.54 270.616C1137.06 270.2 1136.69 269.704 1136.41 269.128C1136.16 268.552 1136.03 267.92 1136.03 267.232V266.824Z" fill="black"/>
<path d="M1156.25 271.624V256.432L1152.08 258.976L1151.31 257.632L1156.66 254.32H1157.93V271.624H1156.25Z" fill="black"/>
<path d="M1170.64 271.624V256.432L1166.47 258.976L1165.7 257.632L1171.05 254.32H1172.32V271.624H1170.64Z" fill="black"/>
<path d="M1189.16 256.6C1188.62 256.28 1188.03 256.032 1187.41 255.856C1186.8 255.664 1186.16 255.568 1185.49 255.568C1184.67 255.568 1183.99 255.736 1183.43 256.072C1182.87 256.392 1182.4 256.864 1182.03 257.488C1181.67 258.112 1181.39 258.88 1181.19 259.792C1181 260.688 1180.87 261.712 1180.81 262.864C1180.94 262.608 1181.12 262.336 1181.36 262.048C1181.62 261.76 1181.92 261.496 1182.27 261.256C1182.64 261.016 1183.07 260.824 1183.55 260.68C1184.03 260.52 1184.57 260.44 1185.18 260.44C1185.91 260.44 1186.61 260.56 1187.27 260.8C1187.94 261.04 1188.52 261.392 1189.02 261.856C1189.53 262.304 1189.93 262.864 1190.22 263.536C1190.52 264.192 1190.67 264.944 1190.67 265.792V266.368C1190.67 267.216 1190.53 267.984 1190.24 268.672C1189.95 269.344 1189.55 269.92 1189.04 270.4C1188.55 270.88 1187.95 271.248 1187.24 271.504C1186.55 271.76 1185.81 271.888 1185.01 271.888C1184.19 271.888 1183.43 271.744 1182.71 271.456C1182 271.184 1181.39 270.76 1180.86 270.184C1180.33 269.608 1179.91 268.88 1179.61 268C1179.31 267.104 1179.15 266.056 1179.15 264.856V264.28C1179.15 262.424 1179.3 260.848 1179.59 259.552C1179.89 258.256 1180.31 257.2 1180.86 256.384C1181.4 255.568 1182.07 254.976 1182.85 254.608C1183.63 254.24 1184.52 254.056 1185.51 254.056C1186.3 254.056 1187.07 254.16 1187.82 254.368C1188.59 254.576 1189.3 254.864 1189.95 255.232L1189.16 256.6ZM1180.98 266.032C1180.98 266.688 1181.07 267.28 1181.27 267.808C1181.46 268.336 1181.73 268.792 1182.08 269.176C1182.43 269.56 1182.85 269.856 1183.33 270.064C1183.83 270.272 1184.37 270.376 1184.96 270.376C1185.55 270.376 1186.1 270.288 1186.59 270.112C1187.09 269.92 1187.51 269.656 1187.87 269.32C1188.23 268.968 1188.51 268.544 1188.71 268.048C1188.91 267.536 1189.02 266.952 1189.02 266.296V265.936C1189.02 265.296 1188.91 264.728 1188.68 264.232C1188.46 263.72 1188.16 263.296 1187.79 262.96C1187.43 262.608 1186.99 262.344 1186.5 262.168C1186.02 261.992 1185.51 261.904 1184.99 261.904C1184.47 261.904 1183.98 262 1183.5 262.192C1183.02 262.384 1182.59 262.648 1182.23 262.984C1181.86 263.32 1181.55 263.728 1181.31 264.208C1181.09 264.672 1180.98 265.176 1180.98 265.72V266.032Z" fill="black"/>
<path d="M1210.03 269.92C1209.71 269.92 1209.39 269.88 1209.07 269.8C1208.75 269.72 1208.45 269.6 1208.16 269.44C1207.87 269.264 1207.62 269.048 1207.39 268.792C1207.17 268.536 1207 268.224 1206.89 267.856H1206.86C1206.72 268.24 1206.5 268.56 1206.22 268.816C1205.93 269.072 1205.62 269.28 1205.28 269.44C1204.94 269.6 1204.6 269.712 1204.25 269.776C1203.91 269.84 1203.6 269.872 1203.31 269.872C1201.82 269.872 1200.71 269.456 1199.98 268.624C1199.26 267.792 1198.9 266.648 1198.9 265.192V263.368C1198.9 261.896 1199.27 260.752 1200.02 259.936C1200.79 259.104 1201.88 258.688 1203.29 258.688C1204.1 258.688 1204.77 258.84 1205.28 259.144C1205.81 259.432 1206.21 259.792 1206.48 260.224V258.832H1208.18V266.536C1208.18 267.208 1208.37 267.696 1208.74 268C1209.1 268.288 1209.54 268.432 1210.06 268.432C1210.46 268.432 1210.82 268.352 1211.14 268.192C1211.47 268.016 1211.76 267.752 1212 267.4C1212.24 267.032 1212.42 266.56 1212.55 265.984C1212.7 265.392 1212.77 264.688 1212.77 263.872V263.608C1212.77 262.248 1212.57 261.024 1212.17 259.936C1211.78 258.848 1211.21 257.928 1210.44 257.176C1209.67 256.408 1208.7 255.824 1207.54 255.424C1206.38 255.008 1205.04 254.8 1203.5 254.8C1202.19 254.8 1200.99 255.008 1199.9 255.424C1198.83 255.84 1197.91 256.44 1197.14 257.224C1196.38 257.992 1195.78 258.944 1195.37 260.08C1194.95 261.2 1194.74 262.472 1194.74 263.896V264.304C1194.74 265.792 1194.94 267.12 1195.34 268.288C1195.76 269.456 1196.36 270.44 1197.14 271.24C1197.93 272.056 1198.9 272.672 1200.05 273.088C1201.2 273.52 1202.51 273.736 1203.98 273.736C1205.22 273.736 1206.41 273.608 1207.56 273.352C1208.73 273.096 1209.82 272.704 1210.82 272.176L1211.5 273.544C1210.49 274.088 1209.35 274.504 1208.09 274.792C1206.84 275.096 1205.5 275.248 1204.06 275.248C1202.38 275.248 1200.86 274.992 1199.52 274.48C1198.18 273.984 1197.03 273.264 1196.09 272.32C1195.14 271.376 1194.42 270.232 1193.9 268.888C1193.41 267.528 1193.16 266.008 1193.16 264.328V263.872C1193.16 262.352 1193.4 260.944 1193.88 259.648C1194.36 258.352 1195.04 257.24 1195.92 256.312C1196.82 255.368 1197.9 254.632 1199.18 254.104C1200.46 253.576 1201.9 253.312 1203.5 253.312C1205.26 253.312 1206.82 253.568 1208.16 254.08C1209.52 254.576 1210.66 255.272 1211.57 256.168C1212.48 257.064 1213.17 258.144 1213.63 259.408C1214.11 260.656 1214.35 262.032 1214.35 263.536V263.848C1214.35 264.52 1214.29 265.216 1214.16 265.936C1214.03 266.656 1213.8 267.312 1213.46 267.904C1213.14 268.48 1212.7 268.96 1212.14 269.344C1211.58 269.728 1210.88 269.92 1210.03 269.92ZM1200.65 264.904C1200.65 266.072 1200.89 266.92 1201.37 267.448C1201.85 267.976 1202.55 268.24 1203.48 268.24C1204.36 268.24 1205.07 268 1205.62 267.52C1206.16 267.024 1206.43 266.288 1206.43 265.312V262.912C1206.43 262.592 1206.36 262.28 1206.22 261.976C1206.09 261.656 1205.9 261.376 1205.64 261.136C1205.4 260.88 1205.1 260.68 1204.73 260.536C1204.36 260.376 1203.94 260.296 1203.48 260.296C1202.55 260.296 1201.85 260.568 1201.37 261.112C1200.89 261.656 1200.65 262.504 1200.65 263.656V264.904Z" fill="black"/>
<path d="M1223.05 258.448C1224.54 258.448 1225.68 258.856 1226.48 259.672C1227.3 260.472 1227.71 261.552 1227.71 262.912V271.624H1226.07V263.32C1226.07 262.856 1226.03 262.424 1225.93 262.024C1225.83 261.608 1225.66 261.248 1225.4 260.944C1225.16 260.624 1224.83 260.376 1224.39 260.2C1223.98 260.024 1223.45 259.936 1222.81 259.936C1222.27 259.936 1221.76 260.04 1221.3 260.248C1220.85 260.44 1220.47 260.696 1220.15 261.016C1219.83 261.336 1219.57 261.688 1219.38 262.072C1219.2 262.456 1219.11 262.84 1219.11 263.224V271.624H1217.48V253.48H1219.11V260.488C1219.26 260.248 1219.45 260.008 1219.69 259.768C1219.93 259.512 1220.21 259.288 1220.53 259.096C1220.87 258.904 1221.24 258.752 1221.66 258.64C1222.07 258.512 1222.54 258.448 1223.05 258.448Z" fill="black"/>
<path d="M1234.96 271.816C1233.72 271.816 1232.72 271.488 1231.96 270.832C1231.19 270.176 1230.8 269.272 1230.8 268.12V267.592C1230.8 266.536 1231.19 265.68 1231.96 265.024C1232.72 264.368 1233.86 264.04 1235.36 264.04H1239.01V262.84C1239.01 261.896 1238.75 261.176 1238.22 260.68C1237.71 260.168 1236.95 259.912 1235.94 259.912C1235.24 259.912 1234.56 260.04 1233.92 260.296C1233.28 260.536 1232.68 260.848 1232.12 261.232L1231.33 259.984C1231.94 259.568 1232.61 259.208 1233.35 258.904C1234.1 258.6 1234.97 258.448 1235.96 258.448C1237.42 258.448 1238.56 258.808 1239.37 259.528C1240.2 260.248 1240.62 261.264 1240.62 262.576V271.624H1239.04V270.04H1239.01C1238.88 270.248 1238.69 270.464 1238.44 270.688C1238.2 270.896 1237.91 271.088 1237.57 271.264C1236.84 271.632 1235.96 271.816 1234.96 271.816ZM1239.01 265.408H1235.39C1234.35 265.408 1233.6 265.616 1233.13 266.032C1232.67 266.448 1232.44 266.992 1232.44 267.664V268.048C1232.44 268.464 1232.52 268.824 1232.68 269.128C1232.84 269.416 1233.04 269.656 1233.3 269.848C1233.57 270.04 1233.87 270.184 1234.19 270.28C1234.52 270.36 1234.86 270.4 1235.2 270.4C1235.71 270.4 1236.17 270.336 1236.59 270.208C1237 270.08 1237.4 269.896 1237.79 269.656C1238.14 269.432 1238.43 269.16 1238.65 268.84C1238.89 268.504 1239.01 268.088 1239.01 267.592V265.408Z" fill="black"/>
<path d="M1249.82 258.448C1251.3 258.448 1252.45 258.856 1253.25 259.672C1254.06 260.472 1254.47 261.552 1254.47 262.912V271.624H1252.84V263.32C1252.84 262.856 1252.79 262.424 1252.7 262.024C1252.6 261.608 1252.42 261.248 1252.17 260.944C1251.93 260.624 1251.59 260.376 1251.16 260.2C1250.74 260.024 1250.22 259.936 1249.58 259.936C1249.03 259.936 1248.53 260.04 1248.06 260.248C1247.62 260.44 1247.23 260.696 1246.91 261.016C1246.59 261.336 1246.34 261.688 1246.14 262.072C1245.97 262.456 1245.88 262.84 1245.88 263.224V271.624H1244.25V258.688H1245.86V260.488C1246 260.248 1246.19 260.008 1246.43 259.768C1246.67 259.512 1246.96 259.288 1247.3 259.096C1247.63 258.904 1248.01 258.752 1248.42 258.64C1248.84 258.512 1249.3 258.448 1249.82 258.448Z" fill="black"/>
<path d="M1258.38 258.688L1262.39 269.8L1266.33 258.688H1268.01L1261.29 276.976L1259.9 276.472L1261.55 271.84L1256.7 258.688H1258.38Z" fill="black"/>
<path d="M1273.6 271.816C1272.37 271.816 1271.37 271.488 1270.6 270.832C1269.84 270.176 1269.45 269.272 1269.45 268.12V267.592C1269.45 266.536 1269.84 265.68 1270.6 265.024C1271.37 264.368 1272.51 264.04 1274.01 264.04H1277.66V262.84C1277.66 261.896 1277.4 261.176 1276.87 260.68C1276.36 260.168 1275.6 259.912 1274.59 259.912C1273.88 259.912 1273.21 260.04 1272.57 260.296C1271.93 260.536 1271.33 260.848 1270.77 261.232L1269.98 259.984C1270.59 259.568 1271.26 259.208 1272 258.904C1272.75 258.6 1273.62 258.448 1274.61 258.448C1276.07 258.448 1277.2 258.808 1278.02 259.528C1278.85 260.248 1279.27 261.264 1279.27 262.576V271.624H1277.68V270.04H1277.66C1277.53 270.248 1277.34 270.464 1277.08 270.688C1276.84 270.896 1276.56 271.088 1276.22 271.264C1275.48 271.632 1274.61 271.816 1273.6 271.816ZM1277.66 265.408H1274.04C1273 265.408 1272.24 265.616 1271.78 266.032C1271.32 266.448 1271.08 266.992 1271.08 267.664V268.048C1271.08 268.464 1271.16 268.824 1271.32 269.128C1271.48 269.416 1271.69 269.656 1271.95 269.848C1272.22 270.04 1272.52 270.184 1272.84 270.28C1273.17 270.36 1273.51 270.4 1273.84 270.4C1274.36 270.4 1274.82 270.336 1275.24 270.208C1275.65 270.08 1276.05 269.896 1276.44 269.656C1276.79 269.432 1277.08 269.16 1277.3 268.84C1277.54 268.504 1277.66 268.088 1277.66 267.592V265.408Z" fill="black"/>
<path d="M1288.46 258.448C1289.95 258.448 1291.1 258.856 1291.9 259.672C1292.71 260.472 1293.12 261.552 1293.12 262.912V271.624H1291.49V263.32C1291.49 262.856 1291.44 262.424 1291.34 262.024C1291.25 261.608 1291.07 261.248 1290.82 260.944C1290.58 260.624 1290.24 260.376 1289.81 260.2C1289.39 260.024 1288.86 259.936 1288.22 259.936C1287.68 259.936 1287.18 260.04 1286.71 260.248C1286.26 260.44 1285.88 260.696 1285.56 261.016C1285.24 261.336 1284.98 261.688 1284.79 262.072C1284.62 262.456 1284.53 262.84 1284.53 263.224V271.624H1282.9V258.688H1284.5V260.488C1284.65 260.248 1284.84 260.008 1285.08 259.768C1285.32 259.512 1285.61 259.288 1285.94 259.096C1286.28 258.904 1286.66 258.752 1287.07 258.64C1287.49 258.512 1287.95 258.448 1288.46 258.448Z" fill="black"/>
<path d="M1305.27 269.68H1305.24C1304.87 270.336 1304.33 270.816 1303.61 271.12C1302.91 271.424 1302.18 271.576 1301.43 271.576C1300.67 271.576 1299.99 271.448 1299.36 271.192C1298.74 270.952 1298.19 270.6 1297.73 270.136C1297.27 269.656 1296.91 269.072 1296.65 268.384C1296.39 267.696 1296.27 266.912 1296.27 266.032V263.992C1296.27 263.112 1296.39 262.328 1296.65 261.64C1296.91 260.952 1297.26 260.376 1297.71 259.912C1298.17 259.432 1298.71 259.072 1299.34 258.832C1299.98 258.576 1300.67 258.448 1301.4 258.448C1302.36 258.448 1303.16 258.632 1303.8 259C1304.46 259.368 1304.95 259.792 1305.29 260.272V258.688H1306.9V271.408C1306.9 273.248 1306.42 274.632 1305.46 275.56C1304.51 276.504 1303.23 276.976 1301.62 276.976C1300.71 276.976 1299.89 276.856 1299.17 276.616C1298.47 276.376 1297.84 276.048 1297.3 275.632L1298.04 274.36C1298.35 274.568 1298.63 274.736 1298.91 274.864C1299.18 275.008 1299.45 275.12 1299.72 275.2C1300.01 275.296 1300.31 275.36 1300.61 275.392C1300.91 275.424 1301.25 275.44 1301.62 275.44C1302.82 275.44 1303.72 275.112 1304.33 274.456C1304.95 273.816 1305.27 272.816 1305.27 271.456V269.68ZM1297.9 265.792C1297.9 267.184 1298.23 268.256 1298.88 269.008C1299.54 269.76 1300.41 270.136 1301.5 270.136C1302.03 270.136 1302.51 270.072 1302.96 269.944C1303.43 269.8 1303.83 269.592 1304.16 269.32C1304.5 269.032 1304.76 268.68 1304.95 268.264C1305.16 267.832 1305.27 267.328 1305.27 266.752V263.104C1305.27 262.72 1305.17 262.344 1304.98 261.976C1304.8 261.592 1304.55 261.248 1304.21 260.944C1303.87 260.624 1303.47 260.368 1303.01 260.176C1302.55 259.984 1302.04 259.888 1301.5 259.888C1300.39 259.888 1299.51 260.272 1298.86 261.04C1298.22 261.792 1297.9 262.856 1297.9 264.232V265.792Z" fill="black"/>
<path d="M1310.57 269.92H1313V272.32H1310.57V269.92Z" fill="black"/>
<path d="M1320.15 271.816C1318.92 271.816 1317.92 271.488 1317.15 270.832C1316.38 270.176 1316 269.272 1316 268.12V267.592C1316 266.536 1316.38 265.68 1317.15 265.024C1317.92 264.368 1319.05 264.04 1320.56 264.04H1324.21V262.84C1324.21 261.896 1323.94 261.176 1323.41 260.68C1322.9 260.168 1322.14 259.912 1321.13 259.912C1320.43 259.912 1319.76 260.04 1319.12 260.296C1318.48 260.536 1317.88 260.848 1317.32 261.232L1316.53 259.984C1317.13 259.568 1317.81 259.208 1318.54 258.904C1319.29 258.6 1320.17 258.448 1321.16 258.448C1322.61 258.448 1323.75 258.808 1324.57 259.528C1325.4 260.248 1325.81 261.264 1325.81 262.576V271.624H1324.23V270.04H1324.21C1324.08 270.248 1323.89 270.464 1323.63 270.688C1323.39 270.896 1323.1 271.088 1322.77 271.264C1322.03 271.632 1321.16 271.816 1320.15 271.816ZM1324.21 265.408H1320.58C1319.54 265.408 1318.79 265.616 1318.33 266.032C1317.86 266.448 1317.63 266.992 1317.63 267.664V268.048C1317.63 268.464 1317.71 268.824 1317.87 269.128C1318.03 269.416 1318.24 269.656 1318.49 269.848C1318.77 270.04 1319.06 270.184 1319.38 270.28C1319.72 270.36 1320.05 270.4 1320.39 270.4C1320.9 270.4 1321.37 270.336 1321.78 270.208C1322.2 270.08 1322.6 269.896 1322.98 269.656C1323.33 269.432 1323.62 269.16 1323.85 268.84C1324.09 268.504 1324.21 268.088 1324.21 267.592V265.408Z" fill="black"/>
<path d="M1334.2 258.448C1335.11 258.448 1335.91 258.56 1336.6 258.784C1337.28 258.992 1337.9 259.304 1338.44 259.72L1337.7 260.992C1337.09 260.576 1336.51 260.296 1335.95 260.152C1335.39 259.992 1334.8 259.912 1334.2 259.912C1333.04 259.912 1332.14 260.296 1331.48 261.064C1330.83 261.816 1330.5 262.872 1330.5 264.232V265.888C1330.5 267.312 1330.84 268.408 1331.51 269.176C1332.18 269.944 1333.09 270.328 1334.24 270.328C1335.14 270.328 1335.88 270.208 1336.45 269.968C1337.04 269.712 1337.57 269.408 1338.04 269.056L1338.8 270.352C1338.56 270.528 1338.3 270.704 1338.01 270.88C1337.72 271.056 1337.4 271.208 1337.03 271.336C1336.66 271.48 1336.24 271.592 1335.78 271.672C1335.32 271.768 1334.8 271.816 1334.22 271.816C1332.52 271.816 1331.2 271.304 1330.26 270.28C1329.32 269.24 1328.84 267.776 1328.84 265.888V264.28C1328.84 263.336 1328.97 262.504 1329.23 261.784C1329.5 261.048 1329.87 260.44 1330.33 259.96C1330.8 259.464 1331.36 259.088 1332.01 258.832C1332.67 258.576 1333.4 258.448 1334.2 258.448Z" fill="black"/>
<path d="M1341.11 269.92H1343.53V272.32H1341.11V269.92Z" fill="black"/>
<path d="M1352.06 263.656L1357.7 271.624H1355.71L1350.91 264.736L1348.82 266.752V271.624H1347.19V253.48H1348.82V264.808L1355.06 258.688H1357.24L1352.06 263.656Z" fill="black"/>
<path d="M1366.82 260.368C1366.37 260.192 1365.85 260.104 1365.26 260.104C1364.73 260.104 1364.25 260.208 1363.82 260.416C1363.39 260.624 1363.02 260.912 1362.71 261.28C1362.41 261.648 1362.18 262.088 1362.02 262.6C1361.86 263.112 1361.78 263.672 1361.78 264.28V271.624H1360.15V258.688H1361.75V260.968C1361.9 260.664 1362.07 260.36 1362.28 260.056C1362.51 259.752 1362.77 259.48 1363.07 259.24C1363.39 259 1363.75 258.808 1364.13 258.664C1364.53 258.52 1364.98 258.448 1365.47 258.448C1365.84 258.448 1366.17 258.472 1366.46 258.52C1366.76 258.552 1367.05 258.616 1367.32 258.712L1366.82 260.368Z" fill="black"/>
</svg>
