<svg width="100" height="100" viewBox="0 0 100 100" fill="none" xmlns="http://www.w3.org/2000/svg">
<path d="M87.5 15.4297C87.4456 14.6707 87.1195 13.9567 86.5814 13.4186C86.0433 12.8805 85.3293 12.5544 84.5703 12.5C54.7656 10.7422 30.8985 19.7266 20.7031 36.5625C17.1743 42.3197 15.4341 48.9949 15.7031 55.7422C15.9375 61.9531 17.7344 68.2812 21.0938 74.4922L60.2735 35.2734C60.8806 34.7751 61.6514 34.5204 62.436 34.559C63.2205 34.5975 63.9627 34.9265 64.5181 35.4819C65.0735 36.0373 65.4025 36.7795 65.441 37.564C65.4796 38.3486 65.2249 39.1194 64.7266 39.7266L25.5078 78.9062C31.7188 82.2656 38.0469 84.0625 44.2578 84.2969H45.5469C51.8591 84.324 58.054 82.5927 63.4375 79.2969C80.2734 69.1016 89.2578 45.2344 87.5 15.4297Z" fill="#50D890"/>
<path d="M22.3047 76.6016C21.875 75.8984 21.4844 75.1953 21.0938 74.4922L13.3984 82.1484C12.8116 82.7409 12.4824 83.5411 12.4824 84.375C12.4824 85.2089 12.8116 86.0091 13.3984 86.6016C13.9958 87.1791 14.7941 87.502 15.625 87.502C16.4559 87.502 17.2543 87.1791 17.8516 86.6016L25.5078 78.9063L23.3984 77.6953C22.9596 77.4135 22.5865 77.0404 22.3047 76.6016Z" fill="#50D890"/>
</svg>
