<svg width="1929" height="791" viewBox="0 0 1929 791" fill="none" xmlns="http://www.w3.org/2000/svg">
<g filter="url(#filter0_i_46_98)">
<path d="M0 371H1288V387H0V371Z" fill="#50D890"/>
<path d="M1742.42 305.922C1734.35 314.1 1724.72 320.586 1714.11 325C1703.5 329.413 1692.12 331.666 1680.62 331.625C1673.62 331.634 1666.65 330.808 1659.84 329.164L1586.84 464.242L1589.3 466.703C1597.43 474.807 1603.89 484.438 1608.29 495.042C1612.7 505.647 1614.96 517.017 1614.96 528.5C1614.96 539.983 1612.7 551.353 1608.29 561.958C1603.89 572.562 1597.43 582.193 1589.3 590.297C1581.19 598.432 1571.56 604.887 1560.96 609.292C1550.35 613.696 1538.98 615.964 1527.5 615.964C1516.02 615.964 1504.65 613.696 1494.04 609.292C1483.44 604.887 1473.81 598.432 1465.7 590.297C1451.95 576.597 1443.14 558.71 1440.66 539.453C1438.19 520.197 1442.19 500.664 1452.03 483.93L1397.07 428.969C1383.52 436.812 1368.15 440.96 1352.5 441C1345.5 441.009 1338.52 440.183 1331.72 438.539L1258.71 573.617L1261.17 576.078C1269.31 584.182 1275.76 593.813 1280.17 604.417C1284.57 615.022 1286.84 626.392 1286.84 637.875C1286.84 649.358 1284.57 660.728 1280.17 671.333C1275.76 681.937 1269.31 691.568 1261.17 699.672C1253.07 707.807 1243.44 714.262 1232.83 718.667C1222.23 723.071 1210.86 725.339 1199.38 725.339C1187.89 725.339 1176.52 723.071 1165.92 718.667C1155.31 714.262 1145.68 707.807 1137.58 699.672C1129.44 691.568 1122.99 681.937 1118.58 671.333C1114.18 660.728 1111.91 649.358 1111.91 637.875C1111.91 626.392 1114.18 615.022 1118.58 604.417C1122.99 593.813 1129.44 584.182 1137.58 576.078C1148.2 565.462 1161.38 557.751 1175.83 553.681C1190.29 549.612 1205.55 549.321 1220.16 552.836L1293.16 417.758L1290.7 415.297C1282.57 407.193 1276.11 397.562 1271.71 386.958C1267.3 376.353 1265.04 364.983 1265.04 353.5C1265.04 342.017 1267.3 330.647 1271.71 320.042C1276.11 309.438 1282.57 299.807 1290.7 291.703C1305.76 276.589 1325.81 267.494 1347.1 266.127C1368.38 264.761 1389.44 271.217 1406.3 284.283C1423.16 297.348 1434.67 316.123 1438.66 337.077C1442.65 358.032 1438.85 379.722 1427.97 398.07L1482.93 453.031C1502.67 441.537 1526.08 438.108 1548.28 443.461L1621.29 308.383L1618.83 305.922C1610.69 297.818 1604.24 288.187 1599.83 277.583C1595.43 266.978 1593.16 255.608 1593.16 244.125C1593.16 232.642 1595.43 221.272 1599.83 210.667C1604.24 200.063 1610.69 190.432 1618.83 182.328C1635.47 167.247 1657.28 159.144 1679.73 159.696C1702.19 160.249 1723.57 169.416 1739.45 185.298C1755.33 201.18 1764.5 222.562 1765.05 245.016C1765.61 267.47 1757.5 289.277 1742.42 305.922Z" fill="#50D890"/>
</g>
<g filter="url(#filter1_i_46_98)">
<path d="M1694.62 62.5V125C1694.62 129.144 1692.98 133.118 1690.05 136.049C1687.12 138.979 1683.14 140.625 1679 140.625C1674.86 140.625 1670.88 138.979 1667.95 136.049C1665.02 133.118 1663.38 129.144 1663.38 125V62.5C1663.38 58.356 1665.02 54.3817 1667.95 51.4515C1670.88 48.5212 1674.86 46.875 1679 46.875C1683.14 46.875 1687.12 48.5212 1690.05 51.4515C1692.98 54.3817 1694.62 58.356 1694.62 62.5ZM1767.48 177.148C1769.51 177.166 1771.52 176.778 1773.4 176.007C1775.28 175.235 1776.98 174.096 1778.41 172.656L1822.55 128.516C1824.12 127.094 1825.39 125.369 1826.27 123.445C1827.15 121.521 1827.63 119.437 1827.68 117.321C1827.74 115.205 1827.36 113.101 1826.57 111.135C1825.79 109.17 1824.61 107.385 1823.11 105.888C1821.62 104.391 1819.83 103.215 1817.86 102.429C1815.9 101.643 1813.79 101.264 1811.68 101.316C1809.56 101.369 1807.48 101.85 1805.55 102.732C1803.63 103.613 1801.91 104.877 1800.48 106.445L1756.34 150.586C1753.42 153.515 1751.78 157.484 1751.78 161.621C1751.78 165.759 1753.42 169.727 1756.34 172.656C1757.8 174.12 1759.54 175.273 1761.45 176.045C1763.36 176.817 1765.41 177.193 1767.48 177.148ZM1866.5 234.375H1804C1799.86 234.375 1795.88 236.021 1792.95 238.951C1790.02 241.882 1788.38 245.856 1788.38 250C1788.38 254.144 1790.02 258.118 1792.95 261.049C1795.88 263.979 1799.86 265.625 1804 265.625H1866.5C1870.64 265.625 1874.62 263.979 1877.55 261.049C1880.48 258.118 1882.12 254.144 1882.12 250C1882.12 245.856 1880.48 241.882 1877.55 238.951C1874.62 236.021 1870.64 234.375 1866.5 234.375ZM1778.41 327.344C1775.44 324.651 1771.55 323.204 1767.54 323.302C1763.53 323.401 1759.71 325.038 1756.87 327.874C1754.04 330.71 1752.4 334.528 1752.3 338.538C1752.2 342.548 1753.65 346.442 1756.34 349.414L1800.48 393.555C1801.94 395.036 1803.67 396.213 1805.58 397.018C1807.49 397.823 1809.54 398.239 1811.62 398.242C1813.66 398.246 1815.69 397.832 1817.57 397.026C1819.45 396.22 1821.15 395.039 1822.55 393.555C1824.03 392.118 1825.19 390.401 1825.99 388.506C1826.79 386.611 1827.2 384.576 1827.2 382.52C1827.2 380.463 1826.79 378.428 1825.99 376.533C1825.19 374.638 1824.03 372.921 1822.55 371.484L1778.41 327.344ZM1569.62 250C1569.62 245.856 1567.98 241.882 1565.05 238.951C1562.12 236.021 1558.14 234.375 1554 234.375H1491.5C1487.36 234.375 1483.38 236.021 1480.45 238.951C1477.52 241.882 1475.88 245.856 1475.88 250C1475.88 254.144 1477.52 258.118 1480.45 261.049C1483.38 263.979 1487.36 265.625 1491.5 265.625H1554C1558.14 265.625 1562.12 263.979 1565.05 261.049C1567.98 258.118 1569.62 254.144 1569.62 250ZM1557.52 106.445C1554.54 103.752 1550.65 102.305 1546.64 102.404C1542.63 102.503 1538.81 104.14 1535.98 106.976C1533.14 109.812 1531.5 113.63 1531.4 117.64C1531.31 121.649 1532.75 125.543 1535.45 128.516L1579.59 172.656C1582.54 175.532 1586.5 177.14 1590.62 177.14C1594.74 177.14 1598.7 175.532 1601.66 172.656C1604.58 169.727 1606.22 165.759 1606.22 161.621C1606.22 157.484 1604.58 153.515 1601.66 150.586L1557.52 106.445Z" fill="#50D890"/>
</g>
<defs>
<filter id="filter0_i_46_98" x="0" y="91" width="1790" height="704" filterUnits="userSpaceOnUse" color-interpolation-filters="sRGB">
<feFlood flood-opacity="0" result="BackgroundImageFix"/>
<feBlend mode="normal" in="SourceGraphic" in2="BackgroundImageFix" result="shape"/>
<feColorMatrix in="SourceAlpha" type="matrix" values="0 0 0 0 0 0 0 0 0 0 0 0 0 0 0 0 0 0 127 0" result="hardAlpha"/>
<feOffset dy="4"/>
<feGaussianBlur stdDeviation="2"/>
<feComposite in2="hardAlpha" operator="arithmetic" k2="-1" k3="1"/>
<feColorMatrix type="matrix" values="0 0 0 0 0 0 0 0 0 0 0 0 0 0 0 0 0 0 0.25 0"/>
<feBlend mode="normal" in2="shape" result="effect1_innerShadow_46_98"/>
</filter>
<filter id="filter1_i_46_98" x="1429" y="0" width="500" height="504" filterUnits="userSpaceOnUse" color-interpolation-filters="sRGB">
<feFlood flood-opacity="0" result="BackgroundImageFix"/>
<feBlend mode="normal" in="SourceGraphic" in2="BackgroundImageFix" result="shape"/>
<feColorMatrix in="SourceAlpha" type="matrix" values="0 0 0 0 0 0 0 0 0 0 0 0 0 0 0 0 0 0 127 0" result="hardAlpha"/>
<feOffset dy="4"/>
<feGaussianBlur stdDeviation="2"/>
<feComposite in2="hardAlpha" operator="arithmetic" k2="-1" k3="1"/>
<feColorMatrix type="matrix" values="0 0 0 0 0 0 0 0 0 0 0 0 0 0 0 0 0 0 0.25 0"/>
<feBlend mode="normal" in2="shape" result="effect1_innerShadow_46_98"/>
</filter>
</defs>
</svg>
