<svg width="1790" height="700" viewBox="0 0 1790 700" fill="none" xmlns="http://www.w3.org/2000/svg">
<g filter="url(#filter0_i_22_11)">
<path d="M0 280H1288V296H0V280Z" fill="#50D890"/>
<path d="M1742.42 214.922C1734.35 223.1 1724.72 229.586 1714.11 234C1703.5 238.413 1692.12 240.666 1680.62 240.625C1673.62 240.634 1666.65 239.808 1659.84 238.164L1586.84 373.242L1589.3 375.703C1597.43 383.807 1603.89 393.438 1608.29 404.042C1612.7 414.647 1614.96 426.017 1614.96 437.5C1614.96 448.983 1612.7 460.353 1608.29 470.958C1603.89 481.562 1597.43 491.193 1589.3 499.297C1581.19 507.432 1571.56 513.887 1560.96 518.292C1550.35 522.696 1538.98 524.964 1527.5 524.964C1516.02 524.964 1504.65 522.696 1494.04 518.292C1483.44 513.887 1473.81 507.432 1465.7 499.297C1451.95 485.597 1443.14 467.71 1440.66 448.453C1438.19 429.197 1442.19 409.664 1452.03 392.93L1397.07 337.969C1383.52 345.812 1368.15 349.96 1352.5 350C1345.5 350.009 1338.52 349.183 1331.72 347.539L1258.71 482.617L1261.17 485.078C1269.31 493.182 1275.76 502.813 1280.17 513.417C1284.57 524.022 1286.84 535.392 1286.84 546.875C1286.84 558.358 1284.57 569.728 1280.17 580.333C1275.76 590.937 1269.31 600.568 1261.17 608.672C1253.07 616.807 1243.44 623.262 1232.83 627.667C1222.23 632.071 1210.86 634.339 1199.38 634.339C1187.89 634.339 1176.52 632.071 1165.92 627.667C1155.31 623.262 1145.68 616.807 1137.58 608.672C1129.44 600.568 1122.99 590.937 1118.58 580.333C1114.18 569.728 1111.91 558.358 1111.91 546.875C1111.91 535.392 1114.18 524.022 1118.58 513.417C1122.99 502.813 1129.44 493.182 1137.58 485.078C1148.2 474.462 1161.38 466.751 1175.83 462.681C1190.29 458.612 1205.55 458.321 1220.16 461.836L1293.16 326.758L1290.7 324.297C1282.57 316.193 1276.11 306.562 1271.71 295.958C1267.3 285.353 1265.04 273.983 1265.04 262.5C1265.04 251.017 1267.3 239.647 1271.71 229.042C1276.11 218.438 1282.57 208.807 1290.7 200.703C1305.76 185.589 1325.81 176.494 1347.1 175.127C1368.38 173.761 1389.44 180.217 1406.3 193.283C1423.16 206.348 1434.67 225.123 1438.66 246.077C1442.65 267.032 1438.85 288.722 1427.97 307.07L1482.93 362.031C1502.67 350.537 1526.08 347.108 1548.28 352.461L1621.29 217.383L1618.83 214.922C1610.69 206.818 1604.24 197.187 1599.83 186.583C1595.43 175.978 1593.16 164.608 1593.16 153.125C1593.16 141.642 1595.43 130.272 1599.83 119.667C1604.24 109.063 1610.69 99.4322 1618.83 91.3281C1635.47 76.2467 1657.28 68.1435 1679.73 68.6964C1702.19 69.2492 1723.57 78.4157 1739.45 94.298C1755.33 110.18 1764.5 131.562 1765.05 154.016C1765.61 176.47 1757.5 198.277 1742.42 214.922Z" fill="#50D890"/>
</g>
<defs>
<filter id="filter0_i_22_11" x="0" y="0" width="1790" height="704" filterUnits="userSpaceOnUse" color-interpolation-filters="sRGB">
<feFlood flood-opacity="0" result="BackgroundImageFix"/>
<feBlend mode="normal" in="SourceGraphic" in2="BackgroundImageFix" result="shape"/>
<feColorMatrix in="SourceAlpha" type="matrix" values="0 0 0 0 0 0 0 0 0 0 0 0 0 0 0 0 0 0 127 0" result="hardAlpha"/>
<feOffset dy="4"/>
<feGaussianBlur stdDeviation="2"/>
<feComposite in2="hardAlpha" operator="arithmetic" k2="-1" k3="1"/>
<feColorMatrix type="matrix" values="0 0 0 0 0 0 0 0 0 0 0 0 0 0 0 0 0 0 0.25 0"/>
<feBlend mode="normal" in2="shape" result="effect1_innerShadow_22_11"/>
</filter>
</defs>
</svg>
